<?xml version="1.0" encoding="UTF-8"?>
<svg version="1.1" xmlns="http://www.w3.org/2000/svg" width="3000" height="3000">
<path d="M0 0 C5.83324847 3.81030643 11.69958454 7.56809023 17.5703125 11.3203125 C18.62033447 11.99151123 19.67035645 12.66270996 20.75219727 13.35424805 C22.8937598 14.72284469 25.03544332 16.09125202 27.17724609 17.45947266 C32.41433772 20.80594629 37.64844573 24.15707908 42.8828125 27.5078125 C44.96613105 28.84116894 47.04946439 30.17450225 49.1328125 31.5078125 C111.6328125 71.5078125 111.6328125 71.5078125 114.75854492 73.50830078 C116.8394132 74.84004347 118.92030508 76.17174927 121.0012207 77.50341797 C126.2474648 80.86078429 131.49328189 84.21881438 136.73828125 87.578125 C150.27158017 96.24485171 163.820461 104.88663011 177.3828125 113.5078125 C192.00820313 122.80473717 206.61593561 132.1287356 221.20947266 141.47558594 C226.43315093 144.82086198 231.65802202 148.16427391 236.8828125 151.5078125 C243.16857379 155.53030594 249.45406502 159.55321806 255.73828125 163.578125 C257.84892662 164.92973702 259.95960356 166.28129974 262.0703125 167.6328125 C263.10567139 168.29579346 264.14103027 168.95877441 265.20776367 169.6418457 C271.11109203 173.42003156 277.02128172 177.18713949 282.93798828 180.94433594 C291.53990413 186.40678861 300.10923277 191.91479042 308.64501953 197.47998047 C315.26612315 201.79257173 321.91341162 206.06321383 328.5703125 210.3203125 C329.61195557 210.98667725 330.65359863 211.65304199 331.72680664 212.33959961 C337.1719845 215.82118929 342.62107479 219.29652599 348.07421875 222.765625 C387.35759145 247.77916105 387.35759145 247.77916105 397.3828125 260.5078125 C398.09050781 261.39082031 398.79820312 262.27382812 399.52734375 263.18359375 C418.92552014 288.13354805 427.48973418 318.59356633 423.9140625 350.0703125 C420.01648481 378.92737811 405.68938166 406.84812584 382.515625 424.96777344 C372.98057634 432.09587158 362.92186519 438.51750062 352.88671875 444.91210938 C350.03927426 446.72674443 347.19527656 448.54671223 344.3515625 450.3671875 C341.10847056 452.44325024 337.86522105 454.51906129 334.62109375 456.59350586 C326.51808744 461.7757041 318.43470999 466.98720537 310.36572266 472.22216797 C308.33468006 473.53901977 306.30232195 474.85381723 304.26953125 476.16796875 C298.42370813 479.94726608 292.57827806 483.7270172 286.74609375 487.52734375 C276.34587605 494.30321118 265.91086502 501.02209181 255.45117188 507.70581055 C249.58377821 511.45597777 243.72431218 515.21744378 237.8828125 519.0078125 C229.81261122 524.24388954 221.7068274 529.42388869 213.6015625 534.60546875 C207.68452016 538.38979073 201.77499632 542.18490752 195.8828125 546.0078125 C188.90159989 550.53728973 181.89432114 555.02539553 174.8828125 559.5078125 C165.70518366 565.37564566 156.54381232 571.26730394 147.40527344 577.19580078 C138.38264446 583.04896449 129.35984758 588.90018755 120.27734375 594.66015625 C116.6967176 596.94576511 113.1338998 599.25826233 109.5703125 601.5703125 C102.86427341 605.91951901 96.12992158 610.22262834 89.3828125 614.5078125 C82.25402911 619.0359327 75.1433698 623.5894835 68.05981445 628.18798828 C61.74812442 632.28137778 55.40964604 636.33240405 49.0703125 640.3828125 C41.48833507 645.2283218 33.92041598 650.09355299 26.3828125 655.0078125 C16.90736765 661.18382346 7.38449862 667.28428151 -2.1484375 673.37109375 C-6.53067199 676.16989327 -10.9048233 678.98077164 -15.2734375 681.80078125 C-21.36938019 685.73281581 -27.48206776 689.63718191 -33.6171875 693.5078125 C-34.69347412 694.1889209 -34.69347412 694.1889209 -35.79150391 694.88378906 C-61.06114658 710.70399536 -92.35197591 715.50816941 -121.38183594 709.05566406 C-151.96423179 701.56037176 -178.27057557 683.48762765 -195.0234375 656.7265625 C-205.95982873 638.56538828 -211.83510714 617.80781476 -211.72775269 596.58375359 C-211.72736472 595.72918145 -211.72697676 594.87460932 -211.72657704 593.99414106 C-211.72375255 591.17329469 -211.71338671 588.35253425 -211.70263672 585.53170776 C-211.69840004 583.51581337 -211.69443263 581.4999184 -211.6907177 579.48402297 C-211.6419846 558.1326074 -211.46805292 536.78191903 -211.27901554 515.43136811 C-211.22851175 509.67722911 -211.18029725 503.92307079 -211.1317749 498.16891479 C-211.04787874 488.2544562 -210.9626273 478.34001006 -210.87640381 468.42557144 C-210.75161897 454.07558399 -210.62912827 439.72557763 -210.50717473 425.37556587 C-210.30899316 402.05781894 -210.10915136 378.74008652 -209.90820312 355.42236328 C-209.85977706 349.80285649 -209.81135287 344.18334968 -209.76293945 338.56384277 C-209.75693283 337.866636 -209.7509262 337.16942922 -209.74473755 336.45109497 C-209.60469979 320.19477737 -209.46534527 303.93845393 -209.32617188 287.68212891 C-209.32019565 286.98411103 -209.31421943 286.28609316 -209.30806211 285.56692323 C-209.17150765 269.61706534 -209.03514345 253.66720583 -208.89901733 237.71734428 C-208.89329235 237.04658109 -208.88756737 236.3758179 -208.88166891 235.68472854 C-208.83016815 229.65064517 -208.77867048 223.61656178 -208.72720027 217.58247815 C-208.59377635 201.94111709 -208.45979976 186.29976099 -208.32480574 170.6584134 C-208.24032354 160.86819828 -208.15625494 151.07797968 -208.07250834 141.28775825 C-208.02423751 135.64724206 -207.97574877 130.00672795 -207.92668915 124.36621857 C-207.88173064 119.19715216 -207.83736655 114.02808099 -207.7934587 108.85900556 C-207.77753418 106.99670247 -207.76139379 105.13440121 -207.7450068 103.27210213 C-207.72262338 100.72489425 -207.70090012 98.17768219 -207.67965698 95.63046455 C-207.66971173 94.4532011 -207.66971173 94.4532011 -207.65956557 93.25215454 C-207.63089622 89.55262433 -207.61417351 85.85369657 -207.62360001 82.1540544 C-207.62529194 81.4700156 -207.62698387 80.78597679 -207.62872708 80.08120953 C-207.6350325 78.25818222 -207.64502694 76.43516868 -207.65533638 74.61215961 C-207.60165699 70.24402445 -207.17631337 66.00567181 -206.4921875 61.6953125 C-206.36021973 60.85766357 -206.22825195 60.02001465 -206.09228516 59.15698242 C-200.98269572 29.28921185 -183.87759328 2.19886158 -159.13012695 -15.33569336 C-145.42477943 -24.6110893 -130.81622086 -31.04943992 -114.6171875 -34.4921875 C-113.58851563 -34.71648437 -112.55984375 -34.94078125 -111.5 -35.171875 C-68.64865851 -43.13153894 -34.38601268 -22.48681939 0 0 Z " fill="#EF3F65" transform="translate(471.6171875,1162.4921875)"/>
<path d="M0 0 C12.78170768 11.19622786 12.78170768 11.19622786 16.05078125 17.734375 C20.44408921 15.94450879 23.31068643 12.76448562 26.36328125 9.203125 C42.64645077 -8.77620801 70.51869756 -17.6227755 94.05078125 -19.265625 C123.93452434 -20.60836372 151.53852461 -15.27282964 174.96875 4.33984375 C194.96357428 22.87051614 201.56847251 50.57937797 203.05078125 76.734375 C203.17661005 81.63333016 203.17786146 86.52860464 203.16430664 91.42895508 C203.16402375 92.84957375 203.16418449 94.27019257 203.16474915 95.69081116 C203.16503313 99.50398248 203.15920149 103.31712159 203.15217519 107.1302855 C203.14587468 111.13142621 203.1453326 115.13256786 203.14414978 119.13371277 C203.14105605 126.69105428 203.13286935 134.24838113 203.12280029 141.80571622 C203.11157797 150.41770186 203.10611336 159.02968825 203.10110486 167.64167941 C203.09068486 185.33925458 203.07236405 203.03680968 203.05078125 220.734375 C184.24078125 220.734375 165.43078125 220.734375 146.05078125 220.734375 C146.02890747 214.34650635 146.02890747 214.34650635 146.0065918 207.82958984 C145.95615858 193.72801793 145.88969603 179.62655479 145.81506634 165.52509117 C145.77022578 156.97897963 145.7307845 148.43290867 145.7043457 139.88671875 C145.68127005 132.43217708 145.64776653 124.97776512 145.60207969 117.52332652 C145.57827557 113.58140281 145.55946337 109.63960653 145.55316734 105.69761276 C145.54705783 101.97602258 145.52685082 98.25475789 145.49650574 94.53328896 C145.48372245 92.53930594 145.48527928 90.54524651 145.48750305 88.55122375 C145.32914462 73.11127677 142.26667137 56.93457751 132.1328125 44.76953125 C122.05212944 34.91580541 108.67886589 30.87824566 94.86328125 30.421875 C78.48316822 30.79681321 63.38184637 35.71115012 51.05078125 46.734375 C48.03379416 50.20694739 45.47823163 53.83085029 43.05078125 57.734375 C42.64214844 58.39050781 42.23351563 59.04664063 41.8125 59.72265625 C34.94799113 72.09997533 33.91015678 86.02763687 33.84545898 99.82983398 C33.83555939 101.13783463 33.82565979 102.44583527 33.81546021 103.79347229 C33.78854977 107.36317268 33.76746567 110.9328861 33.74745822 114.50263095 C33.7255126 118.23957585 33.69816608 121.97648122 33.67140198 125.71339417 C33.62159058 132.78216643 33.57660915 139.85096078 33.53337961 146.91977602 C33.48390817 154.97059724 33.42902695 163.02137878 33.37370002 171.07216156 C33.26005745 187.62619607 33.15318018 204.18026704 33.05078125 220.734375 C25.76656577 220.75750416 18.48235815 220.77529301 11.19811344 220.78618717 C7.81606312 220.79141475 4.43403785 220.79851011 1.05200195 220.80981445 C-2.83251652 220.82271767 -6.71702472 220.82760424 -10.6015625 220.83203125 C-11.82133286 220.83719254 -13.04110321 220.84235382 -14.2978363 220.84767151 C-15.97946617 220.84778481 -15.97946617 220.84778481 -17.69506836 220.84790039 C-19.18398842 220.85123131 -19.18398842 220.85123131 -20.70298767 220.85462952 C-22.94921875 220.734375 -22.94921875 220.734375 -23.94921875 219.734375 C-24.04913147 217.92279296 -24.07831202 216.10728729 -24.08052063 214.29295349 C-24.0865329 212.52073929 -24.0865329 212.52073929 -24.09266663 210.71272278 C-24.09187355 208.75008736 -24.09187355 208.75008736 -24.09106445 206.74780273 C-24.09409469 205.36476531 -24.09761576 203.98172888 -24.10159302 202.59869385 C-24.10949987 199.61068548 -24.11463395 196.62268915 -24.11788368 193.63467216 C-24.12379389 188.89606455 -24.14033978 184.1575321 -24.15922546 179.41896057 C-24.16556395 177.79539781 -24.17188956 176.17183499 -24.17820263 174.54827213 C-24.18136844 173.73477838 -24.18453425 172.92128462 -24.187796 172.08313954 C-24.22980026 161.0496623 -24.26277592 150.01621773 -24.27514648 138.98266602 C-24.28357087 131.5452964 -24.30623167 124.10811075 -24.34450215 116.67083317 C-24.36413584 112.73998395 -24.3767106 108.80940893 -24.37166786 104.87850761 C-24.16130077 73.46557794 -24.16130077 73.46557794 -37.26171875 45.359375 C-47.58441663 35.27673986 -60.89962319 30.9120744 -75.13671875 30.421875 C-91.51683178 30.79681321 -106.61815363 35.71115012 -118.94921875 46.734375 C-121.96636808 50.20713413 -124.51913097 53.83238132 -126.94921875 57.734375 C-127.56216797 58.70117188 -127.56216797 58.70117188 -128.1875 59.6875 C-135.14559737 72.04551077 -136.08922327 86.90970407 -136.15454102 100.73803711 C-136.16444061 102.03628418 -136.17434021 103.33453125 -136.18453979 104.67211914 C-136.21144845 108.21496074 -136.2325335 111.75781547 -136.25254178 115.30070186 C-136.27448851 119.00961972 -136.30183449 122.71849776 -136.32859802 126.42738342 C-136.37840793 133.44303158 -136.42338991 140.45870198 -136.46662039 147.47439343 C-136.51609311 155.46475649 -136.57097386 163.45507959 -136.62629998 171.44540393 C-136.73994027 187.87502535 -136.84610423 204.30468363 -136.94921875 220.734375 C-155.42921875 220.734375 -173.90921875 220.734375 -192.94921875 220.734375 C-192.94921875 142.524375 -192.94921875 64.314375 -192.94921875 -16.265625 C-175.45921875 -16.265625 -157.96921875 -16.265625 -139.94921875 -16.265625 C-139.61921875 -7.355625 -139.28921875 1.554375 -138.94921875 10.734375 C-134.49421875 6.279375 -134.49421875 6.279375 -129.94921875 1.734375 C-93.87381315 -25.56483888 -36.50839093 -28.04618111 0 0 Z " fill="#EF3E64" transform="translate(2322.94921875,1428.265625)"/>
<path d="M0 0 C17.82 0 35.64 0 54 0 C60.9884528 18.96298516 67.86174185 37.95660054 74.57516479 57.01815796 C77.05661353 64.06342515 79.54588847 71.10592998 82.03515625 78.1484375 C82.28571337 78.85742628 82.53627048 79.56641506 82.79442024 80.29688835 C87.97041682 94.94087007 93.19276826 109.56798348 98.4375 124.1875 C98.81801514 125.24873077 99.19853027 126.30996155 99.59057617 127.40335083 C104.68811343 141.61644977 109.82813042 155.81378446 115 170 C116.8350779 167.24738315 117.86852076 164.97002299 119.01757812 161.89526367 C119.41499207 160.83744186 119.81240601 159.77962006 120.22186279 158.68974304 C120.65396057 157.52755753 121.08605835 156.36537201 121.53125 155.16796875 C121.99057922 153.94161209 122.44990845 152.71525543 122.92315674 151.45173645 C124.18825047 148.07348492 125.44842309 144.69341636 126.70768738 141.31298828 C127.7692254 138.4652656 128.83365631 135.61862819 129.89812851 132.77200127 C139.27924277 107.68418611 148.60549189 82.57575838 157.91601562 57.46166992 C160.67890703 50.00933755 163.44537752 42.55834282 166.21585083 35.10882568 C166.75408679 33.66133857 167.29214287 32.21378455 167.83004761 30.76617432 C169.51527839 26.23102659 171.20341434 21.69697995 172.89569855 17.16445923 C173.43072361 15.73022341 173.9648084 14.29563646 174.49791718 12.86068726 C175.23203132 10.88531622 175.96956313 8.91125548 176.70800781 6.9375 C177.12753723 5.81214844 177.54706665 4.68679688 177.97930908 3.52734375 C179 1 179 1 180 0 C181.50418739 -0.09311889 183.01271356 -0.11746028 184.51977539 -0.11352539 C185.96115623 -0.11341209 185.96115623 -0.11341209 187.43165588 -0.11329651 C188.99882607 -0.10555458 188.99882607 -0.10555458 190.59765625 -0.09765625 C191.66165146 -0.0962413 192.72564667 -0.09482635 193.82188416 -0.09336853 C197.23545083 -0.08775064 200.648953 -0.07519511 204.0625 -0.0625 C206.37044176 -0.05748731 208.67838455 -0.052924 210.98632812 -0.04882812 C216.65757426 -0.0377754 222.32878253 -0.02101987 228 0 C247.9682306 53.89327879 247.9682306 53.89327879 257 79.5 C265.34542335 103.15857035 274.03910025 126.68737573 282.753479 150.21194458 C283.3071817 151.70732254 283.3071817 151.70732254 283.87207031 153.23291016 C284.40121033 154.6605368 284.40121033 154.6605368 284.94104004 156.11700439 C286.38217473 160.04046244 287.78546445 163.97734068 289.18280029 167.91659546 C289.8223241 169.95568197 289.8223241 169.95568197 291 171 C301.2657618 143.1800172 311.52057183 115.35628666 321.6875 87.5 C327.67752704 71.09005931 333.67377817 54.68245366 339.69302368 38.28320312 C340.46859446 36.16989239 341.24381382 34.05645265 342.01864624 31.94287109 C343.09213845 29.01492338 344.16697731 26.08747345 345.2421875 23.16015625 C345.54972458 22.32069962 345.85726166 21.48124298 346.17411804 20.61634827 C348.71213354 13.71442619 351.35914424 6.86622499 354 0 C370.83 0 387.66 0 405 0 C403.535625 3.980625 402.07125 7.96125 400.5625 12.0625 C397.06390058 21.58613632 393.59034337 31.11837041 390.15234375 40.6640625 C381.94986695 63.43281042 373.62554529 86.15056662 365.15380859 108.82055664 C359.7665909 123.23930641 354.4255338 137.67416555 349.125 152.125 C348.3985505 154.10417827 347.67206932 156.08334492 346.94555664 158.0625 C343.69438018 166.92129143 340.44585799 175.78104974 337.20214844 184.64257812 C335.01802857 190.60932229 332.83096075 196.57497822 330.64101601 202.53958702 C329.45692822 205.76504132 328.27432758 208.99102377 327.09527588 212.21832275 C325.78586502 215.80052554 324.47161119 219.38091616 323.15625 222.9609375 C322.76440521 224.03659973 322.37256042 225.11226196 321.96884155 226.22052002 C321.60594025 227.20526306 321.24303894 228.1900061 320.86914062 229.20458984 C320.55481079 230.06273285 320.24048096 230.92087585 319.91662598 231.80502319 C319 234 319 234 317 237 C314.70944214 237.36076355 314.70944214 237.36076355 311.81591797 237.34057617 C310.19446365 237.34023628 310.19446365 237.34023628 308.54025269 237.33988953 C307.36939117 237.32440567 306.19852966 237.30892181 304.9921875 237.29296875 C303.79643097 237.28872391 302.60067444 237.28447906 301.36868286 237.28010559 C297.53722929 237.26326902 293.70629547 237.22560684 289.875 237.1875 C287.28255966 237.17245964 284.69011111 237.15877011 282.09765625 237.14648438 C275.73159252 237.11334918 269.36583338 237.0631003 263 237 C259.14254861 226.7929057 255.28869642 216.58445584 251.4375 206.375 C251.14675976 205.60427155 250.85601952 204.83354309 250.55646896 204.03945923 C240.8947968 178.42412382 231.31530249 152.77949883 221.82788086 127.09912109 C215.6420326 110.36455032 209.35336179 93.67154549 203 77 C197.89496866 89.62551918 192.94514645 102.2984653 188.16189575 115.04925537 C186.32284147 119.95018861 184.47584899 124.84812893 182.62890625 129.74609375 C182.05652473 131.26429718 182.05652473 131.26429718 181.47257996 132.81317139 C175.53736046 148.54222547 169.50231884 164.23320474 163.47755432 179.92811584 C161.03903975 186.28327167 158.60900741 192.64161594 156.1842804 199.00204468 C154.50766152 203.40006296 152.82915823 207.79736109 151.15060425 212.19464111 C150.34541736 214.30557533 149.54114875 216.41686005 148.73782349 218.52850342 C147.62840232 221.44440567 146.51573984 224.35905118 145.40234375 227.2734375 C145.07096405 228.14701904 144.73958435 229.02060059 144.39816284 229.9206543 C142.1138747 235.8861253 142.1138747 235.8861253 141 237 C139.31198015 237.09353163 137.62004793 237.11744791 135.92944336 237.11352539 C134.84839828 237.11344986 133.76735321 237.11337433 132.65354919 237.11329651 C130.889515 237.10555458 130.889515 237.10555458 129.08984375 237.09765625 C127.89267227 237.0962413 126.69550079 237.09482635 125.46205139 237.09336853 C121.62050934 237.08774979 117.77902457 237.07519411 113.9375 237.0625 C111.34049563 237.05748741 108.74349035 237.05292409 106.14648438 237.04882812 C99.76430321 237.03777427 93.3821557 237.02101792 87 237 C81.11987803 221.37864574 75.30687134 205.73424219 69.5625 190.0625 C68.7825559 187.93657356 68.0025244 185.81067918 67.22241211 183.68481445 C66.01489316 180.39413988 64.8074557 177.10343559 63.60035706 173.81260681 C60.90328774 166.45988577 58.202857 159.10840782 55.5 151.7578125 C47.41453517 129.76683755 39.35128168 107.76792155 31.31661987 85.7583313 C24.52883094 67.16497469 17.71140902 48.58262844 10.87304688 30.0078125 C10.16796858 28.0911459 9.46289044 26.17447923 8.7578125 24.2578125 C8.45026031 23.42347687 8.14270813 22.58914124 7.82583618 21.72952271 C5.16813726 14.50279482 2.59019209 7.25253784 0 0 Z " fill="#EF3E64" transform="translate(1688,1412)"/>
<path d="M0 0 C74.91 0 149.82 0 227 0 C227 16.17 227 32.34 227 49 C171.56 49 116.12 49 59 49 C59 80.02 59 111.04 59 143 C108.17 143 157.34 143 208 143 C208 159.17 208 175.34 208 192 C158.83 192 109.66 192 59 192 C59 231.27 59 270.54 59 311 C39.53 311 20.06 311 0 311 C0 208.37 0 105.74 0 0 Z " fill="#EF3E64" transform="translate(1040,1338)"/>
<path d="M0 0 C1.12277344 0.50273438 2.24554687 1.00546875 3.40234375 1.5234375 C12.24125411 5.68407376 19.56081763 10.72897282 27 17 C27.51304687 17.42265137 28.02609375 17.84530273 28.5546875 18.28076172 C50.98145307 36.90095382 64.2644005 64.63052719 67.25048828 93.41455078 C69.48138282 118.78791171 66.2322428 143.08419055 55 166 C54.52691406 166.98613281 54.05382813 167.97226563 53.56640625 168.98828125 C39.83355459 195.87043564 14.63459851 215.14349866 -13.64453125 224.6328125 C-18.04780715 225.99138834 -22.4900862 227.0610826 -27 228 C-27.76570313 228.16081055 -28.53140625 228.32162109 -29.3203125 228.48730469 C-49.63156355 232.55123074 -70.77612717 232.50888418 -91 228 C-91.68900391 227.84966309 -92.37800781 227.69932617 -93.08789062 227.54443359 C-111.65022527 223.29240499 -129.70002886 214.57047611 -144 202 C-144.81210938 201.33484375 -145.62421875 200.6696875 -146.4609375 199.984375 C-167.96678178 181.92827366 -181.37923704 153.7558283 -184.71875 126.140625 C-187.5472757 90.78405376 -180.6723796 57.43408125 -157.40625 29.87890625 C-140.01203304 9.93442123 -116.89047835 -3.55070078 -91 -9 C-90.30632324 -9.14953125 -89.61264648 -9.2990625 -88.89794922 -9.453125 C-59.22643949 -15.61173852 -27.57769392 -12.6089584 0 0 Z M-106 53 C-106.60328125 53.50917969 -107.2065625 54.01835938 -107.828125 54.54296875 C-119.87062306 65.52767982 -127.02627422 82.88049604 -128.22119141 98.98022461 C-129.07573235 122.22555633 -125.81064477 143.66602727 -110.109375 161.83203125 C-96.9833369 175.32268152 -80.44658594 182.00980815 -61.77734375 183 C-50.41940222 183 -39.53615718 181.3671608 -29 177 C-27.72769531 176.47792969 -27.72769531 176.47792969 -26.4296875 175.9453125 C-10.7921243 168.83732923 -0.36077972 155.68489005 6 140 C8.52926065 132.1859583 10.68512726 124.24145159 11 116 C11.03996094 114.95585938 11.07992188 113.91171875 11.12109375 112.8359375 C11.53333194 90.96306438 6.18124925 71.14926048 -9 55 C-23.89742124 40.79496265 -41.26581047 35.34314731 -61.50439453 35.52734375 C-78.35079485 36.03995127 -93.27924275 41.88166372 -106 53 Z " fill="#EF3E64" transform="translate(1610,1421)"/>
<path d="M0 0 C1.60205172 1.37430907 3.18547336 2.77061908 4.75 4.1875 C5.56984375 4.90292969 6.3896875 5.61835937 7.234375 6.35546875 C25.31478477 23.11634551 32.90813345 47.13739367 34.75 71.1875 C34.88898418 76.1178496 34.87678862 81.04692097 34.86352539 85.97875977 C34.86324287 87.45790098 34.86340252 88.93704234 34.8639679 90.41618347 C34.86425334 94.40727123 34.85839764 98.39832858 34.85139394 102.3894093 C34.84511815 106.56941398 34.84455327 110.74941944 34.84336853 114.9294281 C34.84026763 122.83397896 34.83207105 130.73851589 34.82201904 138.64306062 C34.81081926 147.64672368 34.80533773 156.65038742 34.80032361 165.65405571 C34.78988734 184.1652133 34.77155737 202.6763518 34.75 221.1875 C16.27 221.1875 -2.21 221.1875 -21.25 221.1875 C-21.26981934 217.1462085 -21.28963867 213.10491699 -21.31005859 208.94116211 C-21.37713225 195.550082 -21.4546725 182.15907937 -21.53752708 168.76808834 C-21.58748119 160.65359791 -21.63392485 152.53911673 -21.671875 144.42456055 C-21.70499186 137.34542369 -21.74492899 130.26636239 -21.79279006 123.18730932 C-21.81786108 119.4449089 -21.83969754 115.70255733 -21.85334396 111.96009636 C-21.86634305 108.42488014 -21.88858145 104.88983318 -21.91738319 101.35471153 C-21.93052693 99.46468786 -21.9343456 97.5746062 -21.93769836 95.68453979 C-22.10949662 77.75684556 -24.62421221 59.17434375 -36.98828125 45.2265625 C-47.66232352 35.10500689 -61.86998297 31.20192782 -76.3125 30.875 C-94.89995688 31.47218737 -112.22859274 36.14799519 -125.62890625 49.5703125 C-138.24419605 64.45970578 -141.36682021 81.40252098 -141.45532227 100.28295898 C-141.46522186 101.59095963 -141.47512146 102.89896027 -141.48532104 104.24659729 C-141.51223148 107.81629768 -141.53331558 111.3860111 -141.55332303 114.95575595 C-141.57526865 118.69270085 -141.60261517 122.42960622 -141.62937927 126.16651917 C-141.67919067 133.23529143 -141.7241721 140.30408578 -141.76740164 147.37290102 C-141.81687308 155.42372224 -141.8717543 163.47450378 -141.92708123 171.52528656 C-142.04072381 188.07932236 -142.14688704 204.63339475 -142.25 221.1875 C-161.06 221.1875 -179.87 221.1875 -199.25 221.1875 C-199.25 142.9775 -199.25 64.7675 -199.25 -15.8125 C-181.43 -15.8125 -163.61 -15.8125 -145.25 -15.8125 C-144.92 -6.5725 -144.59 2.6675 -144.25 12.1875 C-141.775 9.7125 -141.775 9.7125 -139.25 7.1875 C-133.7354285 1.90127514 -127.93550541 -2.13137049 -121.25 -5.8125 C-120.11304687 -6.46025391 -120.11304687 -6.46025391 -118.953125 -7.12109375 C-84.50114871 -25.67660447 -31.50043515 -24.33678479 0 0 Z " fill="#EF3E64" transform="translate(2794.25,1427.8125)"/>
<path d="M0 0 C2.87082264 13.10986534 5.34815242 26.26002187 7.63336182 39.48373413 C10.6480066 56.91298978 13.76937068 74.31887902 17.05926514 91.69827271 C19.9565586 107.00697872 22.84726487 122.31762809 25.59515381 137.65396118 C25.90108051 139.35333869 26.21055474 141.05208231 26.52398682 142.75009155 C29.81041951 160.58760482 30.31898241 175.85307241 20.8125 191.9375 C12.88749321 203.31261751 0.91661815 211.4008052 -12.625 214.625 C-28.05171326 216.33907925 -41.31815317 213.14426601 -53.90625 203.85546875 C-62.39739662 196.55359418 -67.32715125 188.48880845 -71 178 C-71.4125 176.9275 -71.825 175.855 -72.25 174.75 C-75.09675896 160.51620519 -72.25072268 147.91561782 -64.81640625 135.69140625 C-57.94221046 125.50576991 -47.80077483 117.70057847 -35.859375 114.41015625 C-31.63434695 113.80410714 -27.44916183 113.89618635 -23.1875 113.9375 C-22.30384766 113.94201172 -21.42019531 113.94652344 -20.50976562 113.95117188 C-18.33981441 113.96290134 -16.16989828 113.98083505 -14 114 C-14.11480713 113.45214844 -14.22961426 112.90429688 -14.34790039 112.33984375 C-18.72207575 91.31303109 -22.360472 70.16353189 -26 49 C-36.51374921 53.24450902 -46.89912355 57.68832695 -57.18713379 62.45352173 C-60.93463126 64.18849618 -64.68787642 65.91093588 -68.44140625 67.6328125 C-69.21680756 67.98859879 -69.99220886 68.34438507 -70.79110718 68.71095276 C-79.74726461 72.81235074 -88.74585212 76.81781357 -97.75 80.8125 C-98.52066803 81.15465546 -99.29133606 81.49681091 -100.08535767 81.84933472 C-102.28049017 82.82357842 -104.47604039 83.79687113 -106.671875 84.76953125 C-107.31209091 85.05323578 -107.95230682 85.33694031 -108.61192322 85.62924194 C-112.7288681 87.44944957 -116.85990701 89.23331666 -121 91 C-119.43136888 103.72832111 -117.24155205 116.29948868 -114.75 128.875 C-111.84080095 143.55990947 -109.10457451 158.2671375 -106.50073242 173.00927734 C-106.21550594 174.62210108 -105.93010784 176.23489447 -105.64453125 177.84765625 C-105.43684364 179.02059235 -105.43684364 179.02059235 -105.22496033 180.21722412 C-104.34874114 185.13325079 -103.41869516 190.03508819 -102.44921875 194.93359375 C-98.69075917 213.9640768 -95.87457623 231.24167521 -106.46875 248.8125 C-112.08954561 256.84220801 -118.242241 262.60043288 -127 267 C-127.78761719 267.40089844 -128.57523437 267.80179688 -129.38671875 268.21484375 C-136.40997795 271.56549882 -142.98141021 272.14059958 -150.75 272.125 C-152.04421875 272.12757813 -153.3384375 272.13015625 -154.671875 272.1328125 C-158 272 -158 272 -161 271 C-162.31060967 268.52170097 -163.40088692 266.1546032 -164.4375 263.5625 C-164.74316895 262.80912354 -165.04883789 262.05574707 -165.36376953 261.27954102 C-170.81476344 247.2851902 -173.1657082 232.58937494 -173.1328125 217.62109375 C-173.13376923 216.65019302 -173.13472595 215.6792923 -173.13571167 214.67897034 C-173.13638872 212.63762344 -173.13456773 210.59627434 -173.13037109 208.55493164 C-173.12501029 205.44347268 -173.13033527 202.33215768 -173.13671875 199.22070312 C-173.136058 197.22916635 -173.1347769 195.23762967 -173.1328125 193.24609375 C-173.13483673 192.32299911 -173.13686096 191.39990448 -173.13894653 190.44883728 C-173.12124609 185.53775584 -172.99818648 180.81892738 -172 176 C-170.07421875 174.4765625 -170.07421875 174.4765625 -167.6875 173.625 C-166.51767578 173.18027344 -166.51767578 173.18027344 -165.32421875 172.7265625 C-161.75917797 171.61211278 -158.64109792 170.87393108 -154.890625 170.90234375 C-154.13652344 170.90556641 -153.38242187 170.90878906 -152.60546875 170.91210938 C-151.82816406 170.92048828 -151.05085938 170.92886719 -150.25 170.9375 C-149.45722656 170.94201172 -148.66445313 170.94652344 -147.84765625 170.95117188 C-145.89840492 170.96291435 -143.94919262 170.98084854 -142 171 C-143.83235594 161.30330894 -145.68066174 151.6099697 -147.578125 141.92578125 C-150.60056153 126.49397029 -153.58930521 111.05625227 -156.46542358 95.59640503 C-156.77820815 93.91751077 -157.09250014 92.2388966 -157.40835571 90.56057739 C-157.84835678 88.21958178 -158.28242836 85.87756331 -158.71484375 83.53515625 C-158.84573395 82.84405762 -158.97662415 82.15295898 -159.11148071 81.44091797 C-159.75491024 77.91528275 -160.14190024 74.58459836 -160 71 C-150.53510214 66.14509948 -140.95663763 61.66075803 -131.2208252 57.37921143 C-128.05098586 55.98510914 -124.88459253 54.58325132 -121.71786499 53.18209839 C-120.10461432 52.46843003 -118.49119128 51.75515118 -116.87759399 51.04226685 C-109.82473015 47.92607927 -102.78460765 44.7822133 -95.75 41.625 C-94.03296875 40.85482544 -94.03296875 40.85482544 -92.28125 40.0690918 C-85.37627209 36.96986981 -78.47469625 33.86313403 -71.57421875 30.75390625 C-68.19536685 29.23165016 -64.81645028 27.7095377 -61.4375 26.1875 C-60.59954895 25.80999603 -59.7615979 25.43249207 -58.89825439 25.04354858 C-44.60025547 18.6036517 -30.27936187 12.21632959 -15.94311523 5.86206055 C-15.21820389 5.54062073 -14.49329254 5.21918091 -13.74641418 4.88800049 C-12.39586175 4.28926801 -11.04511456 3.69097459 -9.69413757 3.09320068 C-2.71547534 0 -2.71547534 0 0 0 Z " fill="#FEFDFD" transform="translate(433,1540)"/>
<path d="M0 0 C3.12497405 0.34714378 4.98480637 1.64085949 7.60327148 3.36254883 C8.62936523 4.02875244 9.65545898 4.69495605 10.71264648 5.38134766 C11.79545898 6.10088623 12.87827148 6.8204248 13.99389648 7.56176758 C15.1130462 8.2954138 16.23284245 9.02807467 17.35327148 9.75976562 C19.59541183 11.2254111 21.83376087 12.69661591 24.07006836 14.17114258 C26.90751149 16.02901304 29.76211407 17.85236873 32.63452148 19.65551758 C33.42246094 20.15269287 34.21040039 20.64986816 35.0222168 21.16210938 C36.47138827 22.0750874 37.92373381 22.98305223 39.37963867 23.88525391 C44.13149518 26.91206367 44.13149518 26.91206367 45.24389648 30.24926758 C38.12774493 30.96688208 31.01099314 31.67830083 23.89379883 32.38549805 C21.47471223 32.62659765 19.05576441 32.86909408 16.63696289 33.11303711 C13.1521335 33.46424369 9.66682927 33.810357 6.18139648 34.15551758 C5.10712402 34.26488647 4.03285156 34.37425537 2.92602539 34.48693848 C-2.66766268 35.035664 -8.1356824 35.36734365 -13.75610352 35.24926758 C-13.8029126 35.93859375 -13.84972168 36.62791992 -13.89794922 37.33813477 C-14.47702339 45.07359526 -15.47622049 52.6985544 -16.62527466 60.36816406 C-18.93031439 75.7996217 -20.91680812 91.26352039 -22.81860352 106.74926758 C-24.46316629 120.12303953 -26.15274451 133.47014446 -28.21728516 146.78637695 C-29.7810028 157.03910686 -31.06466779 167.32473055 -32.36032104 177.61419678 C-33.13309737 183.73551009 -33.91892275 189.85516604 -34.70350647 195.97497559 C-35.24808564 200.23157638 -35.78878174 204.48833203 -36.30249023 208.7487793 C-39.09951033 231.80928714 -44.63080907 251.00121965 -63.16625977 266.40942383 C-79.83333951 278.24983794 -98.56159295 282.83393213 -118.84936523 279.9519043 C-133.81382329 277.09878848 -145.30744266 268.79277256 -155.75610352 258.24926758 C-156.64749023 257.4081543 -156.64749023 257.4081543 -157.55688477 256.55004883 C-161.25006942 252.75731742 -163.54458315 248.16843981 -165.94360352 243.49926758 C-166.27714844 242.85578369 -166.61069336 242.2122998 -166.9543457 241.54931641 C-171.66042599 231.97957561 -173.32018086 222.61392564 -173.25610352 211.99926758 C-173.2511084 210.90606201 -173.24611328 209.81285645 -173.2409668 208.68652344 C-172.96177222 195.67124232 -169.36295301 184.92677192 -161.75610352 174.24926758 C-161.13219727 173.35723633 -160.50829102 172.46520508 -159.86547852 171.54614258 C-149.95947082 158.41151015 -134.19610618 148.10606965 -117.76782227 145.49926758 C-98.63717085 143.91124982 -84.63039202 147.31711486 -67.75610352 156.24926758 C-66.42411096 156.91860908 -65.09105104 157.58583911 -63.75610352 158.24926758 C-63.68697754 156.79520508 -63.68697754 156.79520508 -63.61645508 155.31176758 C-63.14334179 146.25151963 -62.20090485 137.34311142 -60.82980347 128.37185669 C-60.25345076 124.59255433 -59.70162827 120.80968201 -59.15063477 117.02661133 C-59.03514786 116.23479965 -58.91966095 115.44298798 -58.80067444 114.62718201 C-57.46445345 105.37223116 -56.32957624 96.09302406 -55.19360352 86.81176758 C-53.65761199 74.29695286 -52.03656488 61.80593254 -50.21166992 49.3293457 C-48.73324168 39.20791447 -47.38440145 29.07133437 -46.0625 18.9284668 C-45.82768921 17.14013428 -45.82768921 17.14013428 -45.58813477 15.31567383 C-45.45125244 14.26323486 -45.31437012 13.2107959 -45.17333984 12.12646484 C-44.78893614 9.47567628 -44.30956469 6.86938596 -43.75610352 4.24926758 C-38.00893081 3.67649256 -32.26145318 3.10691836 -26.51367188 2.5402832 C-24.55915803 2.34714878 -22.60472976 2.15314631 -20.65039062 1.95825195 C-17.83819372 1.6779618 -15.02570195 1.40081428 -12.21313477 1.12426758 C-11.34211624 1.03677246 -10.47109772 0.94927734 -9.57368469 0.85913086 C-6.3845026 0.54784793 -3.19126328 0.28862431 0 0 Z " fill="#FEFDFD" transform="translate(643.756103515625,1273.750732421875)"/>
<path d="M0 0 C18.48 0 36.96 0 56 0 C56 108.57 56 217.14 56 329 C37.52 329 19.04 329 0 329 C0 220.43 0 111.86 0 0 Z " fill="#EF3E64" transform="translate(1317,1320)"/>
<path d="M0 0 C3.99313186 1.44593117 7.35495899 3.36329568 10.921875 5.66015625 C12.02917969 6.37107422 13.13648438 7.08199219 14.27734375 7.81445312 C14.84694824 8.18320557 15.41655273 8.55195801 16.00341797 8.93188477 C17.75600906 10.06638984 19.51238063 11.19483821 21.26953125 12.32226562 C29.84124846 17.84124846 29.84124846 17.84124846 31 19 C31.24656847 25.65693211 30.61920934 31.98331884 29.6875 38.56640625 C29.40950265 40.60944893 29.13217996 42.65258351 28.85546875 44.69580078 C28.64156494 46.25974579 28.64156494 46.25974579 28.42333984 47.85528564 C27.74593164 52.8873074 27.12398617 57.92596938 26.5 62.96484375 C26.25029262 64.95902104 26.00029216 66.95316165 25.75 68.94726562 C25.37252589 71.95649117 24.99649964 74.96586066 24.625 77.97583008 C18.08915372 130.85406033 18.08915372 130.85406033 -3 148 C-19.54903011 160.24089712 -36.51806564 164.45083746 -57 163 C-75.93654868 159.87528123 -90.86715333 149.51056934 -102.4375 134.625 C-113.3400594 118.60538313 -115.91559934 100.77793802 -113.3125 81.8125 C-110.01059435 64.70679432 -99.83384333 49.77012109 -85.75390625 39.671875 C-69.30035946 29.20672157 -51.41578101 25.29223807 -32.0859375 28.6875 C-22.32449412 31.28477984 -13.58936643 35.76561214 -5 41 C-4.95174072 40.38793701 -4.90348145 39.77587402 -4.85375977 39.14526367 C-4.1521875 30.83075636 -3.06397254 22.57758431 -1.9375 14.3125 C-1.74913243 12.91734693 -1.56098001 11.52216479 -1.37304688 10.12695312 C-0.91746997 6.75101143 -0.45974132 3.37537665 0 0 Z " fill="#FEFDFD" transform="translate(794,1370)"/>
<path d="M0 0 C2.25452256 2.25452256 2.77167342 3.75437423 3.80908203 6.74536133 C4.15828705 7.74278351 4.50749207 8.74020569 4.86727905 9.76785278 C5.43184311 11.40837112 5.43184311 11.40837112 6.0078125 13.08203125 C6.40569977 14.22292206 6.80358704 15.36381287 7.21353149 16.53927612 C8.07322082 19.00625499 8.93084123 21.47384186 9.78503418 23.94271851 C11.12974046 27.82887293 12.48238786 31.71222968 13.83691406 35.5949707 C14.29406881 36.90556286 14.75122213 38.21615551 15.20837402 39.52674866 C15.43536484 40.1774489 15.66235565 40.82814915 15.89622498 41.49856758 C16.58879911 43.48476918 17.28063703 45.47122587 17.97229004 47.45774841 C22.18404921 59.55125118 26.45507513 71.62330477 30.75 83.6875 C31.37387864 85.44310885 31.99773984 87.1987239 32.62158203 88.9543457 C33.22150249 90.64019979 33.82159678 92.32599202 34.421875 94.01171875 C34.85141983 95.21913475 34.85141983 95.21913475 35.28964233 96.45094299 C36.91010002 100.9922092 38.55731905 105.52255299 40.22851562 110.04541016 C40.78457489 111.55552422 40.78457489 111.55552422 41.35186768 113.09614563 C42.0718927 115.04837997 42.7959704 116.99912562 43.52459717 118.94816589 C44.00983856 120.26510185 44.00983856 120.26510185 44.50488281 121.60864258 C44.93840057 122.77367058 44.93840057 122.77367058 45.38067627 123.9622345 C46 126 46 126 46 129 C42.24764347 130.26733198 38.49395394 131.53062642 34.73901367 132.7902832 C32.8376694 133.42904428 30.9373814 134.07094669 29.03710938 134.71289062 C27.83505859 135.11572266 26.63300781 135.51855469 25.39453125 135.93359375 C24.28956299 136.30540771 23.18459473 136.67722168 22.04614258 137.06030273 C19.36393769 137.88772973 16.75239383 138.47413518 14 139 C11.33797592 132.48076836 8.85439948 125.92593992 6.546875 119.2734375 C6.24179016 118.39974518 5.93670532 117.52605286 5.62237549 116.62588501 C4.66279447 113.87632463 3.70634128 111.12568867 2.75 108.375 C2.09395799 106.49341705 1.43770977 104.61190599 0.78125 102.73046875 C-0.81488076 98.15447189 -2.40821033 93.57750866 -4 89 C-9.46608231 99.88287953 -14.86484012 110.79626672 -20.1875 121.75 C-20.55139832 122.49791809 -20.91529663 123.24583618 -21.29022217 124.01641846 C-26.87700585 135.50652867 -32.34152177 147.04605459 -37.62573242 158.67871094 C-46.37366618 177.79790637 -54.8256737 192.4178386 -75.3125 200.0625 C-88.90002526 204.09257958 -102.23839904 203.01728092 -114.93359375 196.4921875 C-127.78488779 188.82775416 -135.57164981 178.84627516 -140.09765625 164.52734375 C-143.62570408 150.49720004 -142.26801986 137.25968586 -134.78515625 124.62890625 C-128.93903051 116.01962262 -122.19488643 109.86864071 -113 105 C-111.80890625 104.34837891 -111.80890625 104.34837891 -110.59375 103.68359375 C-98.97180306 98.40590582 -82.58123268 99.37386993 -70.8046875 103.65625 C-66.11650145 105.90240042 -62.05993959 108.77746968 -58 112 C-56.66858745 113.00255593 -55.33587354 114.00339593 -54 115 C-53.86319824 113.99755249 -53.86319824 113.99755249 -53.72363281 112.97485352 C-52.80086946 109.18137463 -51.15762364 105.87401721 -49.421875 102.40234375 C-49.05939667 101.66490433 -48.69691833 100.9274649 -48.32345581 100.16767883 C-47.54382577 98.58240348 -46.76170874 96.99834926 -45.97735596 95.41540527 C-43.89128153 91.20383584 -41.82461655 86.9827703 -39.7578125 82.76171875 C-39.34409393 81.91755402 -38.93037537 81.07338928 -38.50411987 80.2036438 C-35.11061303 73.26362788 -31.84128795 66.27408326 -28.625 59.25 C-19.47787596 39.32067153 -9.82318915 19.60466481 0 0 Z " fill="#FEFDFD" transform="translate(661,1532)"/>
<path d="M0 0 C0.57363281 0.36609375 1.14726562 0.7321875 1.73828125 1.109375 C2.58777344 1.65078125 3.43726563 2.1921875 4.3125 2.75 C5.29057617 3.37342285 6.26865234 3.9968457 7.27636719 4.63916016 C9.87607674 6.29166226 12.48427441 7.92985747 15.09741211 9.56103516 C26.98951654 16.99904823 38.64863108 24.7430402 50.25 32.625 C53.99996428 35.16994697 57.7512628 37.71291148 61.50390625 40.25390625 C62.44885452 40.89386032 63.3938028 41.53381439 64.36738586 42.19316101 C71.02984087 46.69485616 77.73566467 51.126161 84.46484375 55.52734375 C86.28691887 56.72358995 88.10886164 57.92003777 89.93066406 59.11669922 C92.54477521 60.83360599 95.16142227 62.54565357 97.78845215 64.24273682 C100.19388933 65.79695762 102.58800139 67.36732187 104.98046875 68.94140625 C105.69702133 69.39740707 106.41357391 69.8534079 107.15184021 70.32322693 C109.10229492 71.61938477 109.10229492 71.61938477 112 74 C112 78.62904883 111.10354751 79.83727391 108.5703125 83.60546875 C107.85746094 84.67087891 107.14460937 85.73628906 106.41015625 86.83398438 C106.0352002 87.38401123 105.66024414 87.93403809 105.27392578 88.50073242 C104.12630996 90.18557682 102.99383779 91.87984574 101.86328125 93.57617188 C96.28056319 101.85971841 96.28056319 101.85971841 94 103 C91.99487305 101.95874023 91.99487305 101.95874023 89.51171875 100.30859375 C88.58689697 99.69959229 87.6620752 99.09059082 86.70922852 98.46313477 C85.71205811 97.79467529 84.7148877 97.12621582 83.6875 96.4375 C82.67034912 95.76452881 81.65319824 95.09155762 80.60522461 94.39819336 C77.39811564 92.27341862 74.19874175 90.13734549 71 88 C68.93521974 86.62711689 66.87012489 85.25470679 64.8046875 83.8828125 C59.86363935 80.59770546 54.92921703 77.30282954 50 74 C52.60887016 88.54010301 55.37553968 103.03609361 58.375 117.5 C58.66888472 118.92250494 58.96266655 120.34503114 59.25634766 121.76757812 C60.4943343 127.75803816 61.73485348 133.74788691 62.99658203 139.73339844 C63.82928644 143.68471582 64.65031386 147.63831607 65.4644165 151.59350586 C65.77479682 153.09034706 66.08939467 154.58632121 66.40863037 156.08129883 C69.98042088 172.82421557 70.80241302 187.63029036 62.04296875 202.85546875 C54.70325171 214.15273877 44.65455516 222.45080542 31.62109375 226.33203125 C16.12686472 229.19019 2.2083227 227.67616542 -11.08203125 218.984375 C-21.49364468 211.06528189 -29.68894442 200.03763968 -32 187 C-33.20081178 172.17681461 -32.73079199 159.43734628 -23.625 147.125 C-22.43771569 145.73178415 -21.23012515 144.35553921 -20 143 C-19.47792969 142.38640625 -18.95585937 141.7728125 -18.41796875 141.140625 C-10.68344989 132.63453613 -0.28261889 127.63241399 11 126 C13.46004902 125.93027072 15.92189937 125.90889746 18.3828125 125.93359375 C19.62691895 125.94318115 20.87102539 125.95276855 22.15283203 125.96264648 C23.56218018 125.98113647 23.56218018 125.98113647 25 126 C24.8548999 125.34032227 24.7097998 124.68064453 24.56030273 124.00097656 C21.34016398 109.30399734 18.28855437 94.58524103 15.4375 79.8125 C15.28876434 79.04202332 15.14002869 78.27154663 14.98678589 77.47772217 C14.39703255 74.42130937 13.80764785 71.36482586 13.21885681 68.30822754 C12.00138828 61.9927112 10.76127985 55.6819239 9.5 49.375 C9.31018555 48.42520264 9.12037109 47.47540527 8.92480469 46.49682617 C7.6859075 40.33142474 6.41616903 34.17270572 5.13671875 28.015625 C4.8111943 26.44612705 4.48567347 24.87662835 4.16015625 23.30712891 C3.52187884 20.23050721 2.8793435 17.15481502 2.234375 14.07958984 C1.94128303 12.67027302 1.64830861 11.26093173 1.35546875 9.8515625 C1.09403076 8.60197754 0.83259277 7.35239258 0.56323242 6.06494141 C0 3 0 3 0 0 Z " fill="#FEFDFE" transform="translate(349,1204)"/>
<path d="M0 0 C0.71800781 0.4846875 1.43601562 0.969375 2.17578125 1.46875 C8.92369996 6.6535915 12.35080465 14.05241396 15 22 C15.98819428 32.49753928 13.98462923 41.17524638 7.875 49.8125 C1.93513201 56.94034159 -6.51048745 61.45449405 -15.734375 62.37109375 C-24.26980526 62.63067044 -30.79352365 62.05787877 -38 57 C-38.98226562 56.31357422 -38.98226562 56.31357422 -39.984375 55.61328125 C-46.91916335 50.20473905 -51.19620772 42.56107569 -53 34 C-54.1788781 24.32457365 -51.79687238 15.72309853 -46.3125 7.6875 C-35.24361425 -5.88440012 -14.65636049 -10.16866073 0 0 Z " fill="#EF4066" transform="translate(557,1458)"/>
<path d="M0 0 C6.72567704 5.20218114 11.75689465 12.49916845 13 21 C13.88287374 32.85366553 12.54438904 41.09565901 4.875 50.3125 C-0.71947183 56.20336768 -7.97846467 60.62871072 -16.22265625 61.23828125 C-27.70889027 61.46029391 -35.79651595 59.82394868 -44.3203125 51.7109375 C-51.92314648 43.96665544 -54.68548826 35.85581432 -54.6105957 25.04589844 C-54.16729876 15.7859178 -49.82781414 7.68794762 -42.99609375 1.46484375 C-29.80855259 -8.21290172 -13.65654943 -9.31034743 0 0 Z " fill="#EF4066" transform="translate(768,1438)"/>
<path d="M0 0 C4.46876455 3.07848225 8.07974831 6.73924494 9.8125 11.9375 C10.41566848 17.86865671 9.71491716 21.25580871 6.3125 26.17578125 C3.3709518 29.63056833 0.0635632 31.52047893 -4.1875 32.9375 C-9.4562598 33.33514225 -12.75391924 32.86177667 -17.1875 29.9375 C-22.05411241 25.23007585 -23.88817563 21.93074373 -24.5625 15.1875 C-24.47808946 10.16038321 -22.45009316 6.67089774 -19.1875 2.9375 C-13.54137458 -2.05014429 -6.94704562 -2.31568187 0 0 Z " fill="#EF4267" transform="translate(418.1875,1688.0625)"/>
<path d="M0 0 C4.94742708 2.61373506 8.48243807 5.96487614 11 11 C11.8176718 17.28439181 11.30041829 22.11443677 7.5390625 27.3046875 C4.31112369 30.86033584 1.31245218 32.64762633 -3.4609375 33.375 C-9.143598 33.64804074 -12.60831494 32.86886541 -17 29 C-20.84802547 24.83130574 -22.69527206 21.30722579 -23.4375 15.6875 C-22.86160847 10.83355709 -21.1109505 7.72665946 -18 4 C-11.88027293 -0.77338711 -7.42511245 -1.64013614 0 0 Z " fill="#EF4267" transform="translate(576,1667)"/>
<path d="M0 0 C4.7201756 2.03703396 7.49022806 4.74315917 9.9609375 9.2421875 C11.87810755 14.11499472 11.20203715 18.0842949 9.6796875 23.07421875 C7.01080875 27.78923788 3.08433113 31.67859875 -2.1953125 33.38671875 C-8.12190128 34.07815411 -11.52219452 33.28320702 -16.43359375 29.88671875 C-19.88838083 26.94517055 -21.77829143 23.63778195 -23.1953125 19.38671875 C-23.59295475 14.11795895 -23.11958917 10.82029951 -20.1953125 6.38671875 C-14.00709453 0.2557991 -8.7980093 -2.45780687 0 0 Z " fill="#EF4267" transform="translate(373.1953125,1364.61328125)"/>
<path d="M0 0 C4.63786401 3.22932753 7.16345905 6.3439662 8.671875 11.90625 C9.32864795 16.6616187 9.18673619 19.89559656 6.984375 24.21875 C3.35617199 28.43531026 0.1502876 31.47376531 -5.52734375 32.1796875 C-12.07748007 32.44704 -16.39681706 31.34087944 -21.328125 26.90625 C-24.93351363 22.28684581 -24.68300271 17.44958637 -24.7265625 11.80859375 C-24.26762682 8.46556228 -23.31395471 6.61462339 -21.328125 3.90625 C-15.01454807 -0.8289327 -7.59905302 -3.57002491 0 0 Z " fill="#EF4166" transform="translate(291.328125,1746.09375)"/>
</svg>
