<?xml version="1.0" encoding="UTF-8"?>
<svg version="1.1" xmlns="http://www.w3.org/2000/svg" width="360" height="360">
<path d="M0 0 C2 2 2 2 2.0625 4.4375 C1 7 1 7 -2.0546875 8.4609375 C-3.36570686 8.98430886 -4.68109619 9.49682797 -6 10 C-15.58797782 13.71541552 -24.28738882 17.34382647 -32.6796875 23.3984375 C-35 25 -35 25 -38 26 C-38.495 27.485 -38.495 27.485 -39 29 C-40.4421692 30.20387975 -41.88753804 31.40433005 -43.35546875 32.57666016 C-46.12044266 34.96974179 -48.28018043 37.79558492 -50.5 40.6875 C-50.97848389 41.30761963 -51.45696777 41.92773926 -51.94995117 42.56665039 C-61.16056632 54.66018025 -67.35485135 68.22412958 -71 83 C-71.2784375 84.07378906 -71.556875 85.14757812 -71.84375 86.25390625 C-75.83113233 103.9571454 -75.73027789 123.45775488 -71 141 C-70.67128906 142.22203125 -70.34257813 143.4440625 -70.00390625 144.703125 C-66.77374502 155.38836422 -61.96326307 166.38596001 -55.2265625 175.36328125 C-54 177 -54 177 -54 179 C-53.34 179 -52.68 179 -52 179 C-50.4921875 180.4609375 -50.4921875 180.4609375 -48.875 182.375 C-48.33617188 183.00148437 -47.79734375 183.62796875 -47.2421875 184.2734375 C-46 186 -46 186 -46 188 C-45.40058594 188.27585938 -44.80117187 188.55171875 -44.18359375 188.8359375 C-42 190 -42 190 -39.0625 192.625 C-16.75559597 212.04289948 13.45128908 216.60141956 42 215 C48.48468175 214.27337476 54.73275592 212.78164822 61 211 C61.66531738 210.81808105 62.33063477 210.63616211 63.01611328 210.44873047 C77.57497528 206.38300385 89.75638554 199.48887107 101.390625 190.00390625 C104 188 104 188 107 187 C107.68729129 185.67717994 108.35051756 184.3417879 109 183 C110.32426716 181.55534492 111.6828275 180.14183893 113.0625 178.75 C122.40018587 168.49656038 127.67708066 156.31171731 131.90625 143.25390625 C133 140 133 140 134 139 C136.4375 138.8125 136.4375 138.8125 139 139 C141.60906751 141.60906751 141.32812644 142.72823679 141.375 146.375 C140.91665514 170.82904628 130.91782362 198.29834176 115 217 C114.0849996 218.11902543 113.1710405 219.23890267 112.2578125 220.359375 C111.2565172 221.57399684 110.25390257 222.78753222 109.25 224 C108.76547363 224.58942383 108.28094727 225.17884766 107.78173828 225.78613281 C106.56579015 227.22956439 105.28746167 228.61997572 104 230 C103.34 230 102.68 230 102 230 C102 230.66 102 231.32 102 232 C101.34 232 100.68 232 100 232 C100 232.66 100 233.32 100 234 C74.5703694 258.99861991 37.04290077 270.31666289 2.14599609 270.17626953 C-33.15352881 269.77813156 -66.02494106 256.76762002 -91.65625 232.41015625 C-95.45725202 228.50145917 -98.80535799 224.41576 -102 220 C-102.38510742 219.47341797 -102.77021484 218.94683594 -103.16699219 218.40429688 C-114.00705114 203.42937008 -121.798375 187.01777928 -126 169 C-126.24339111 167.99163086 -126.24339111 167.99163086 -126.49169922 166.96289062 C-134.9254858 130.58185048 -126.99083325 92.09773525 -107.79003906 60.56591797 C-102.89299783 52.77793079 -97.15641605 45.81898998 -91 39 C-90.33355469 38.26136719 -89.66710937 37.52273437 -88.98046875 36.76171875 C-69.61185825 16.41448372 -29.15353425 -7.15166064 0 0 Z M-50.15234375 20.3359375 C-51.42175444 21.00114859 -52.68307186 21.68194925 -53.9375 22.375 C-54.60918213 22.74367188 -55.28086426 23.11234375 -55.97290039 23.4921875 C-85.12169512 39.86612794 -105.87697337 68.58640164 -115.375 100.375 C-124.65502792 135.81898328 -119.58867047 171.67425207 -101.578125 203.4296875 C-86.79034231 227.51473951 -65.26716403 243.37182244 -39 253 C-38.25363281 253.30550781 -37.50726563 253.61101562 -36.73828125 253.92578125 C-8.46597245 265.48364334 26.71421801 261.80781847 54.578125 251 C56.75402799 250.0607613 58.87433695 249.04770225 61 248 C61.93070313 247.57074219 62.86140625 247.14148438 63.8203125 246.69921875 C88.91836698 234.79208549 109.00230608 213.52047917 121.35546875 188.85546875 C121.56816406 188.24316406 121.78085937 187.63085938 122 187 C121.67 186.34 121.34 185.68 121 185 C119.9790625 186.10794922 119.9790625 186.10794922 118.9375 187.23828125 C97.26686156 210.15344002 67.5525857 223.12085257 36.12109375 224.31640625 C21.62029868 224.65056995 8.00658816 223.84212068 -6 220 C-7.09699219 219.71125 -8.19398438 219.4225 -9.32421875 219.125 C-34.28702492 211.65948788 -56.40374114 194.75146279 -69.13427734 171.97021484 C-78.45407231 154.25637738 -82.95852108 135.965913 -84 116 C-84.04253906 115.19304687 -84.08507812 114.38609375 -84.12890625 113.5546875 C-84.85949719 84.81811049 -75.16877638 53.5900955 -56 32 C-55.41863281 31.30003906 -54.83726563 30.60007812 -54.23828125 29.87890625 C-50.31475904 25.15737952 -50.31475904 25.15737952 -48 24 C-48 23.34 -48 22.68 -48 22 C-46.68 21.34 -45.36 20.68 -44 20 C-47.05607315 18.61390051 -47.05607315 18.61390051 -50.15234375 20.3359375 Z " fill="#1E1E1E" transform="translate(174,46)"/>
<path d="M0 0 C0.33 0 0.66 0 1 0 C1.32871094 1.65322266 1.32871094 1.65322266 1.6640625 3.33984375 C8.40602312 36.09535531 23.193374 65.21096188 51.75488281 84.16455078 C60.75928989 90.03267298 69.92832888 94.30824866 80 98 C80.74636719 98.30550781 81.49273437 98.61101562 82.26171875 98.92578125 C110.53402755 110.48364334 145.71421801 106.80781847 173.578125 96 C175.75402799 95.0607613 177.87433695 94.04770225 180 93 C180.93070313 92.57074219 181.86140625 92.14148438 182.8203125 91.69921875 C207.89009574 79.80549806 229.75910437 57.92563579 240 32 C239.15695312 32.86625 238.31390625 33.7325 237.4453125 34.625 C236.33880643 35.75026041 235.23202112 36.87524628 234.125 38 C233.56941406 38.57234375 233.01382813 39.1446875 232.44140625 39.734375 C230.99865596 41.19450782 229.5025626 42.60149298 228 44 C227.34 44 226.68 44 226 44 C225.67 41.69 225.34 39.38 225 37 C225.99 37 226.98 37 228 37 C228.33 36.01 228.66 35.02 229 34 C229.78375 33.9175 230.5675 33.835 231.375 33.75 C234.14749104 33.27193661 234.14749104 33.27193661 235.3125 30.9375 C235.6528125 29.9784375 235.6528125 29.9784375 236 29 C237.65 29 239.3 29 241 29 C241.66 27.68 242.32 26.36 243 25 C244.64826111 27.96687001 245.44271087 30.65626525 246 34 C247.32 33.67 248.64 33.34 250 33 C250.33 31.68 250.66 30.36 251 29 C251.33 29.66 251.66 30.32 252 31 C251.30664062 32.99609375 251.30664062 32.99609375 250.15625 35.4375 C249.52867798 36.77300903 249.52867798 36.77300903 248.88842773 38.13549805 C248.43024658 39.08078369 247.97206543 40.02606934 247.5 41 C247.03730713 41.9588208 246.57461426 42.9176416 246.09790039 43.90551758 C241.2412607 53.7949882 235.52161013 61.7163136 228.015625 69.7734375 C225.97659377 71.94111957 225.97659377 71.94111957 224.359375 74.2890625 C223.91078125 74.85367188 223.4621875 75.41828125 223 76 C222.34 76 221.68 76 221 76 C221 76.66 221 77.32 221 78 C220.34 78 219.68 78 219 78 C219 78.66 219 79.32 219 80 C193.5703694 104.99861991 156.04290077 116.31666289 121.14599609 116.17626953 C85.84647119 115.77813156 52.97505894 102.76762002 27.34375 78.41015625 C23.54274798 74.50145917 20.19464201 70.41576 17 66 C16.61489258 65.47341797 16.22978516 64.94683594 15.83300781 64.40429688 C6.57026265 51.60833963 -0.56615074 37.71043982 -5.125 22.5625 C-5.33745361 21.85883301 -5.54990723 21.15516602 -5.76879883 20.43017578 C-6.72113056 16.99604816 -7.44734607 14.34413119 -6 11 C-5.34 10.01 -4.68 9.02 -4 8 C-3.01 8 -2.02 8 -1 8 C-0.67 5.36 -0.34 2.72 0 0 Z " fill="#222222" transform="translate(55,200)"/>
<path d="M0 0 C2.5625 0.1875 2.5625 0.1875 4.5625 2.1875 C5.68493372 9.99232985 4.29973918 17.78213202 2.8125 25.4375 C2.65571777 26.26427246 2.49893555 27.09104492 2.33740234 27.94287109 C1.1297759 33.74711977 -0.82598758 38.87442301 -3.4375 44.1875 C-3.75428711 44.90711914 -4.07107422 45.62673828 -4.39746094 46.36816406 C-5.86976075 48.94365191 -7.68716775 49.31897403 -10.4375 50.1875 C-10.6540625 49.07375 -10.6540625 49.07375 -10.875 47.9375 C-11.33937492 45.66722261 -11.85613569 43.42990521 -12.4375 41.1875 C-13.0975 42.5075 -13.7575 43.8275 -14.4375 45.1875 C-16.0875 45.1875 -17.7375 45.1875 -19.4375 45.1875 C-19.4375 46.1775 -19.4375 47.1675 -19.4375 48.1875 C-21.1390625 48.620625 -21.1390625 48.620625 -22.875 49.0625 C-24.050625 49.43375 -25.22625 49.805 -26.4375 50.1875 C-26.9325 51.1775 -26.9325 51.1775 -27.4375 52.1875 C-28.4275 52.1875 -29.4175 52.1875 -30.4375 52.1875 C-29.9425 56.1475 -29.9425 56.1475 -29.4375 60.1875 C-56.16523269 82.05564493 -88.52724871 88.42088125 -122.4375 86.1875 C-131.33593839 85.13585387 -139.98645386 83.16076822 -148.4375 80.1875 C-148.4375 79.5275 -148.4375 78.8675 -148.4375 78.1875 C-149.4275 78.1875 -150.4175 78.1875 -151.4375 78.1875 C-151.251875 77.61 -151.06625 77.0325 -150.875 76.4375 C-150.39726454 73.98057475 -150.68020636 72.54352466 -151.4375 70.1875 C-145.92035434 70.77928322 -140.72984869 71.75400025 -135.375 73.1875 C-115.78904476 78.40034826 -94.87976861 77.71453595 -75.4375 72.1875 C-74.77218262 72.00558105 -74.10686523 71.82366211 -73.42138672 71.63623047 C-58.86252472 67.57050385 -46.68111446 60.67637107 -35.046875 51.19140625 C-32.4375 49.1875 -32.4375 49.1875 -29.4375 48.1875 C-28.75020871 46.86467994 -28.08698244 45.5292879 -27.4375 44.1875 C-26.11323284 42.74284492 -24.7546725 41.32933893 -23.375 39.9375 C-14.03731413 29.68406038 -8.76041934 17.49921731 -4.53125 4.44140625 C-3.1189864 0.23992203 -3.1189864 0.23992203 0 0 Z " fill="#171717" transform="translate(310.4375,184.8125)"/>
<path d="M0 0 C2 2 2 2 2.0625 4.4375 C1 7 1 7 -2.0546875 8.4609375 C-3.36570686 8.98430886 -4.68109619 9.49682797 -6 10 C-15.58797782 13.71541552 -24.28738882 17.34382647 -32.6796875 23.3984375 C-35 25 -35 25 -38 26 C-38.33 26.99 -38.66 27.98 -39 29 C-40.43750048 30.24147769 -41.88016789 31.4784426 -43.3671875 32.66015625 C-45.75096965 34.61622629 -47.85251622 36.78935494 -50 39 C-50.33 38.34 -50.66 37.68 -51 37 C-51.66 37.66 -52.32 38.32 -53 39 C-55.625 38.625 -55.625 38.625 -58 38 C-58 37.01 -58 36.02 -58 35 C-57 34 -56 33 -55 32 C-54.525625 30.989375 -54.05125 29.97875 -53.5625 28.9375 C-51.94112325 25.88931172 -51.18426404 25.09802208 -48 24 C-48 23.34 -48 22.68 -48 22 C-47.01 21.34 -46.02 20.68 -45 20 C-50.68502535 21.64566523 -55.76681636 24.29032784 -61 27 C-62.98 25.68 -64.96 24.36 -67 23 C-65.73532205 19.20596616 -64.38302487 18.93315707 -61 17 C-60.5875 16.54367188 -60.175 16.08734375 -59.75 15.6171875 C-48.92100823 5.61003886 -29.31636113 2.31635088 -15.3125 0.125 C-14.05626831 -0.07367676 -14.05626831 -0.07367676 -12.7746582 -0.27636719 C-8.29760994 -0.90914631 -4.4353982 -1.21275097 0 0 Z " fill="#171717" transform="translate(174,46)"/>
<path d="M0 0 C2.5625 0.1875 2.5625 0.1875 4.5625 2.1875 C5.68493372 9.99232985 4.29973918 17.78213202 2.8125 25.4375 C2.65571777 26.26427246 2.49893555 27.09104492 2.33740234 27.94287109 C1.1297759 33.74711977 -0.82598758 38.87442301 -3.4375 44.1875 C-3.75428711 44.90711914 -4.07107422 45.62673828 -4.39746094 46.36816406 C-5.86976075 48.94365191 -7.68716775 49.31897403 -10.4375 50.1875 C-10.581875 49.445 -10.72625 48.7025 -10.875 47.9375 C-11.33937492 45.66722261 -11.85613569 43.42990521 -12.4375 41.1875 C-13.0975 42.5075 -13.7575 43.8275 -14.4375 45.1875 C-16.0875 45.1875 -17.7375 45.1875 -19.4375 45.1875 C-19.4375 46.1775 -19.4375 47.1675 -19.4375 48.1875 C-20.571875 48.47625 -21.70625 48.765 -22.875 49.0625 C-24.050625 49.43375 -25.22625 49.805 -26.4375 50.1875 C-26.7675 50.8475 -27.0975 51.5075 -27.4375 52.1875 C-28.4275 52.1875 -29.4175 52.1875 -30.4375 52.1875 C-30.086875 53.363125 -29.73625 54.53875 -29.375 55.75 C-29.08203125 57.9453125 -29.08203125 57.9453125 -29.4375 60.1875 C-33.19026956 64.56434432 -37.64329165 67.57296275 -43.4375 68.1875 C-44.0975 67.8575 -44.7575 67.5275 -45.4375 67.1875 C-45.4375 65.5375 -45.4375 63.8875 -45.4375 62.1875 C-44.5403125 62.0328125 -44.5403125 62.0328125 -43.625 61.875 C-41.35639034 61.34731013 -41.35639034 61.34731013 -39.875 59.625 C-39.400625 59.150625 -38.92625 58.67625 -38.4375 58.1875 C-37.4475 58.1875 -36.4575 58.1875 -35.4375 58.1875 C-35.9325 56.7025 -35.9325 56.7025 -36.4375 55.1875 C-35.81488281 54.93355469 -35.19226563 54.67960937 -34.55078125 54.41796875 C-32.07493666 52.97639565 -31.6670886 52.11292165 -30.625 49.5 C-29.19213471 46.38435105 -27.78840016 44.36109738 -25.25 42.0625 C-13.88657361 31.30869949 -8.11860644 15.72356738 -3.4375 1.1875 C-2.4375 0.1875 -2.4375 0.1875 0 0 Z " fill="#111111" transform="translate(310.4375,184.8125)"/>
<path d="M0 0 C0.5534764 2.07553648 1 3.84365964 1 6 C2.32 6 3.64 6 5 6 C5.20319048 12.09571438 4.68681957 17.62853821 3.53515625 23.6171875 C1.89969509 33.95521208 1.87572443 44.25209024 1.9375 54.6875 C1.94252856 56.17903494 1.94708905 57.67057154 1.95117188 59.16210938 C1.96206196 62.77477462 1.97925064 66.38737632 2 70 C1.38125 70.28875 0.7625 70.5775 0.125 70.875 C-2.13325765 71.93720042 -2.13325765 71.93720042 -4 74 C-9.37430587 68.62569413 -8.28543201 56.30412049 -8.37939453 49.06689453 C-8.37794434 47.93106934 -8.37649414 46.79524414 -8.375 45.625 C-8.37483887 44.42343262 -8.37467773 43.22186523 -8.37451172 41.98388672 C-8.20625185 28.55320701 -6.6477204 14.68702056 -2 2 C-1.34 2 -0.68 2 0 2 C0 1.34 0 0.68 0 0 Z " fill="#171717" transform="translate(53,138)"/>
<path d="M0 0 C0.66 0.33 1.32 0.66 2 1 C1.34 1.66 0.68 2.32 0 3 C3.32423843 4.10807948 4.67190578 3.76802174 8 3 C8.66 3 9.32 3 10 3 C9.67099224 5.90946076 9.11972873 6.8910536 6.91796875 8.89453125 C-7.06305674 18.71525158 -7.06305674 18.71525158 -14 22 C-14.66 21.67 -15.32 21.34 -16 21 C-15.67 19.68 -15.34 18.36 -15 17 C-15.66 16.67 -16.32 16.34 -17 16 C-17 15.34 -17 14.68 -17 14 C-17.66 13.67 -18.32 13.34 -19 13 C-17.31970703 11.96939453 -17.31970703 11.96939453 -15.60546875 10.91796875 C-14.13267898 10.00802857 -12.66003007 9.09786038 -11.1875 8.1875 C-10.44951172 7.73568359 -9.71152344 7.28386719 -8.95117188 6.81835938 C-8.23896484 6.37685547 -7.52675781 5.93535156 -6.79296875 5.48046875 C-6.1383667 5.07723389 -5.48376465 4.67399902 -4.80932617 4.25854492 C-2.98610087 2.99033193 -1.51747691 1.61604104 0 0 Z M0 5 C-0.33 5.66 -0.66 6.32 -1 7 C-0.34 7 0.32 7 1 7 C0.67 6.34 0.34 5.68 0 5 Z " fill="#202020" transform="translate(259,278)"/>
<path d="M0 0 C0.33 0.66 0.66 1.32 1 2 C-0.21258505 5.23356015 -1.01284458 6.00856305 -4 8 C-4 8.66 -4 9.32 -4 10 C-4.61875 10.103125 -5.2375 10.20625 -5.875 10.3125 C-8.36526484 10.87525373 -8.36526484 10.87525373 -10 14 C-10.99 14 -11.98 14 -13 14 C-13.33 15.65 -13.66 17.3 -14 19 C-12.35 19 -10.7 19 -9 19 C-11.27597646 21.49552403 -13.60721178 23.06622986 -16.5625 24.6875 C-17.34753906 25.12449219 -18.13257813 25.56148438 -18.94140625 26.01171875 C-21 27 -21 27 -23 27 C-23 26.01 -23 25.02 -23 24 C-24.94009522 22.29467677 -24.94009522 22.29467677 -27 21 C-26.34 21 -25.68 21 -25 21 C-25 20.34 -25 19.68 -25 19 C-25.66 18.67 -26.32 18.34 -27 18 C-25.97261719 17.45472656 -24.94523438 16.90945312 -23.88671875 16.34765625 C-15.13477382 11.6151309 -7.4398618 6.66750327 0 0 Z " fill="#242424" transform="translate(279,233)"/>
<path d="M0 0 C0.29003906 0.64839844 0.58007812 1.29679688 0.87890625 1.96484375 C1.79034443 4.1865505 1.79034443 4.1865505 3.9375 4.5625 C4.9584375 4.7790625 4.9584375 4.7790625 6 5 C9.27194345 7.45395759 11.37351769 11.30197803 13 15 C13.25 17.9375 13.25 17.9375 13 20 C12.34 20 11.68 20 11 20 C10.67 21.32 10.34 22.64 10 24 C4.63223705 22.29623907 2.8244217 19.71786848 0.09375 14.953125 C-1.77354903 9.91141763 -0.98011699 5.18570988 0 0 Z " fill="#1D1D1D" transform="translate(61,235)"/>
<path d="M0 0 C0 3.51716303 -0.82445585 4.37121748 -3 7 C-0.64632287 7.6878236 -0.64632287 7.6878236 2 8 C2.99 7.34 3.98 6.68 5 6 C4.47868283 10.95725232 2.14796788 14.28207993 -0.5625 18.3125 C-0.98724609 18.95767578 -1.41199219 19.60285156 -1.84960938 20.26757812 C-2.89266393 21.84973954 -3.94537872 23.42552501 -5 25 C-5.66 23.68 -6.32 22.36 -7 21 C-6.01 20.67 -5.02 20.34 -4 20 C-4.33 18.68 -4.66 17.36 -5 16 C-6.98 16.99 -6.98 16.99 -9 18 C-9 17.34 -9 16.68 -9 16 C-9.66 16 -10.32 16 -11 16 C-11 18.31 -11 20.62 -11 23 C-12.32 23 -13.64 23 -15 23 C-13.58564256 17.78205983 -11.22552808 14.08920608 -8.0625 9.8125 C-7.61970703 9.19697266 -7.17691406 8.58144531 -6.72070312 7.94726562 C-4.64263166 5.08875599 -2.53944977 2.45307081 0 0 Z " fill="#333333" transform="translate(119,76)"/>
<path d="M0 0 C6.00744377 0.31618125 11.46342405 3.13835719 16 7 C16.79296875 9.703125 16.79296875 9.703125 17 12 C15.35 12.33 13.7 12.66 12 13 C12 13.66 12 14.32 12 15 C7.07534897 13.46104655 2.6817276 10.59570593 -1 7 C-1.859375 4.9921875 -1.859375 4.9921875 -2 3 C-1.34 2.01 -0.68 1.02 0 0 Z " fill="#1B1B1B" transform="translate(98,283)"/>
<path d="M0 0 C2.90277951 1.35463044 5.34550901 2.91439052 7.875 4.875 C11.17164936 7.39378827 14.52213381 9.73938698 18 12 C17.01 12.495 17.01 12.495 16 13 C14.26420441 12.00352476 12.52986519 11.00068333 10.8515625 9.91015625 C8.74557091 8.70590354 8.74557091 8.70590354 5 9 C5.33 9.66 5.66 10.32 6 11 C5.01 11.495 5.01 11.495 4 12 C4 12.66 4 13.32 4 14 C-1.34021246 12.49806525 -5.13647744 8.82517494 -9 5 C-9 4.67 -9 4.34 -9 4 C-5.7 3.67 -2.4 3.34 1 3 C0.67 2.01 0.34 1.02 0 0 Z " fill="#393939" transform="translate(93,275)"/>
<path d="M0 0 C1.20628008 2.33214148 2.1654738 4.49642139 3 7 C2.01 7.66 1.02 8.32 0 9 C-0.99 10.485 -0.99 10.485 -2 12 C-2.66 12 -3.32 12 -4 12 C-3.67 10.35 -3.34 8.7 -3 7 C-4.26457031 8.299375 -4.26457031 8.299375 -5.5546875 9.625 C-6.66119357 10.75026041 -7.76797888 11.87524628 -8.875 13 C-9.43058594 13.57234375 -9.98617188 14.1446875 -10.55859375 14.734375 C-12.00134404 16.19450782 -13.4974374 17.60149298 -15 19 C-15.66 19 -16.32 19 -17 19 C-17.33 16.69 -17.66 14.38 -18 12 C-17.01 12 -16.02 12 -15 12 C-14.67 11.01 -14.34 10.02 -14 9 C-13.21625 8.9175 -12.4325 8.835 -11.625 8.75 C-8.85250896 8.27193661 -8.85250896 8.27193661 -7.6875 5.9375 C-7.460625 5.298125 -7.23375 4.65875 -7 4 C-5.35 4 -3.7 4 -2 4 C-1.34 2.68 -0.68 1.36 0 0 Z " fill="#252525" transform="translate(298,225)"/>
<path d="M0 0 C0.97140086 3.02213602 1.19248372 5.0187907 0 8 C-0.99 8.66 -1.98 9.32 -3 10 C-3 9.34 -3 8.68 -3 8 C-4.98 8.99 -4.98 8.99 -7 10 C-7 9.34 -7 8.68 -7 8 C-7.66 8 -8.32 8 -9 8 C-9.33 8.66 -9.66 9.32 -10 10 C-11.32 9.34 -12.64 8.68 -14 8 C-12.87895467 6.68412059 -11.75303035 5.37239647 -10.625 4.0625 C-9.99851562 3.33160156 -9.37203125 2.60070312 -8.7265625 1.84765625 C-5.69688091 -1.39451432 -4.13637064 -0.97966673 0 0 Z M-13 10 C-12.67 10.66 -12.34 11.32 -12 12 C-12.66 11.67 -13.32 11.34 -14 11 C-13.67 10.67 -13.34 10.34 -13 10 Z " fill="#191919" transform="translate(272,273)"/>
<path d="M0 0 C0.66 0.33 1.32 0.66 2 1 C1.34 1.66 0.68 2.32 0 3 C3.32423843 4.10807948 4.67190578 3.76802174 8 3 C8.66 3 9.32 3 10 3 C9.64037102 5.85179471 9.11014144 6.89395384 7.00390625 8.921875 C6.19824219 9.52515625 5.39257812 10.1284375 4.5625 10.75 C3.35787109 11.67039062 3.35787109 11.67039062 2.12890625 12.609375 C0 14 0 14 -2 14 C-3.25664978 11.09399739 -4 9.20395416 -4 6 C-4.66 5.67 -5.32 5.34 -6 5 C-4.02 3.35 -2.04 1.7 0 0 Z M0 5 C-0.33 5.66 -0.66 6.32 -1 7 C-0.34 7 0.32 7 1 7 C0.67 6.34 0.34 5.68 0 5 Z " fill="#2C2C2C" transform="translate(259,278)"/>
<path d="M0 0 C0.66 0.33 1.32 0.66 2 1 C-0.05233685 3.2477975 -1.00667261 4.0022242 -4 5 C-3.67 5.99 -3.34 6.98 -3 8 C-2.01 8 -1.02 8 0 8 C0.33 8.99 0.66 9.98 1 11 C-4.75 16 -4.75 16 -7 16 C-8.125 10.375 -8.125 10.375 -7 7 C-7.66 6.67 -8.32 6.34 -9 6 C-6.03 4.02 -3.06 2.04 0 0 Z " fill="#2B2B2B" transform="translate(112,62)"/>
<path d="M0 0 C2.475 0.99 2.475 0.99 5 2 C5.36923077 7.53846154 5.36923077 7.53846154 3.5 9.875 C3.005 10.24625 2.51 10.6175 2 11 C1.34 10.01 0.68 9.02 0 8 C-1.65 8.66 -3.3 9.32 -5 10 C-4.45276317 6.62537285 -3.9451 4.91765 -2 2 C-1.34 2 -0.68 2 0 2 C0 1.34 0 0.68 0 0 Z M5 1 C5.99 1 6.98 1 8 1 C8 1.66 8 2.32 8 3 C7.01 2.67 6.02 2.34 5 2 C5 1.67 5 1.34 5 1 Z " fill="#0E0E0E" transform="translate(283,256)"/>
<path d="M0 0 C0.33 0.66 0.66 1.32 1 2 C-0.21258505 5.23356015 -1.01284458 6.00856305 -4 8 C-4 8.66 -4 9.32 -4 10 C-4.61875 10.103125 -5.2375 10.20625 -5.875 10.3125 C-8.36526484 10.87525373 -8.36526484 10.87525373 -10 14 C-12.97 13.505 -12.97 13.505 -16 13 C-15.29488281 12.43796875 -14.58976562 11.8759375 -13.86328125 11.296875 C-10.95675429 8.96530903 -8.06981472 6.61141447 -5.1875 4.25 C-4.21167969 3.45078125 -3.23585938 2.6515625 -2.23046875 1.828125 C-1.49441406 1.22484375 -0.75835937 0.6215625 0 0 Z " fill="#313131" transform="translate(279,233)"/>
<path d="M0 0 C3.73487777 0.4979837 5.81237635 0.87491756 9 3 C8.67 3.99 8.34 4.98 8 6 C4.9375 7.1875 4.9375 7.1875 2 8 C0.68 6.68 -0.64 5.36 -2 4 C-1.34 2.68 -0.68 1.36 0 0 Z " fill="#050505" transform="translate(98,283)"/>
<path d="M0 0 C1.65 0.33 3.3 0.66 5 1 C5.75 2.75 5.75 2.75 6 5 C4.0625 7.25 4.0625 7.25 2 9 C-1 7 -1 7 -1.6875 4.875 C-1.790625 4.25625 -1.89375 3.6375 -2 3 C-1.34 3 -0.68 3 0 3 C0 2.01 0 1.02 0 0 Z " fill="#070707" transform="translate(239,292)"/>
<path d="M0 0 C1.65 1.32 3.3 2.64 5 4 C3.865625 4.28875 2.73125 4.5775 1.5625 4.875 C0.386875 5.24625 -0.78875 5.6175 -2 6 C-2.33 6.66 -2.66 7.32 -3 8 C-4.32 7.67 -5.64 7.34 -7 7 C-5.54744301 3.17053157 -3.57104439 1.87949705 0 0 Z " fill="#070707" transform="translate(286,229)"/>
<path d="M0 0 C0 5.78489526 -4.39583785 9.81137913 -8 14 C-9.32 13.67 -10.64 13.34 -12 13 C-8.04 8.71 -4.08 4.42 0 0 Z " fill="#575757" transform="translate(280,258)"/>
<path d="M0 0 C2 0 4 0 6 0 C6.33 1.32 6.66 2.64 7 4 C6.01 4.495 6.01 4.495 5 5 C4.67 5.99 4.34 6.98 4 8 C3.01 8 2.02 8 1 8 C-0.42944945 5.64561267 -1.08661261 4.51967567 -0.625 1.75 C-0.41875 1.1725 -0.2125 0.595 0 0 Z " fill="#050505" transform="translate(108,92)"/>
<path d="M0 0 C0.33 0.66 0.66 1.32 1 2 C1.99 2.33 2.98 2.66 4 3 C1.31158141 5.25245881 -0.64641875 6.88213958 -4 8 C-4.66 6.35 -5.32 4.7 -6 3 C-4.02 2.01 -2.04 1.02 0 0 Z " fill="#1F1F1F" transform="translate(117,65)"/>
<path d="M0 0 C1.20628008 2.33214148 2.1654738 4.49642139 3 7 C2.01 7.66 1.02 8.32 0 9 C-0.99 10.485 -0.99 10.485 -2 12 C-2.66 12 -3.32 12 -4 12 C-3.67 10.35 -3.34 8.7 -3 7 C-3.99 7.495 -3.99 7.495 -5 8 C-5.33 6.68 -5.66 5.36 -6 4 C-5.38125 3.896875 -4.7625 3.79375 -4.125 3.6875 C-1.63473516 3.12474627 -1.63473516 3.12474627 0 0 Z " fill="#545454" transform="translate(298,225)"/>
<path d="M0 0 C1.32 0 2.64 0 4 0 C3.67 1.65 3.34 3.3 3 5 C2.01 5.33 1.02 5.66 0 6 C-0.33 6.66 -0.66 7.32 -1 8 C-1.66 8 -2.32 8 -3 8 C-3.33 7.01 -3.66 6.02 -4 5 C-2.3125 2.3125 -2.3125 2.3125 0 0 Z " fill="#141414" transform="translate(101,69)"/>
<path d="M0 0 C0.66 0.66 1.32 1.32 2 2 C1.9375 3.875 1.9375 3.875 1 6 C-1.5625 8.25 -1.5625 8.25 -4 10 C-4 9.01 -4 8.02 -4 7 C-4.66 6.67 -5.32 6.34 -6 6 C-5.38125 5.566875 -4.7625 5.13375 -4.125 4.6875 C-1.7802755 3.00259517 -1.7802755 3.00259517 0 0 Z " fill="#2C2C2C" transform="translate(291,229)"/>
<path d="M0 0 C1.65 0.33 3.3 0.66 5 1 C5 1.99 5 2.98 5 4 C4.34 4 3.68 4 3 4 C2.67 5.32 2.34 6.64 2 8 C0.68 7.34 -0.64 6.68 -2 6 C-1.67 5.01 -1.34 4.02 -1 3 C-0.34 3 0.32 3 1 3 C0.67 2.01 0.34 1.02 0 0 Z " fill="#080808" transform="translate(69,251)"/>
<path d="M0 0 C0.66 0.33 1.32 0.66 2 1 C1.6875 3.375 1.6875 3.375 1 6 C-2 8 -2 8 -5 8 C-5.33 7.01 -5.66 6.02 -6 5 C-5.195625 4.731875 -4.39125 4.46375 -3.5625 4.1875 C-2.716875 3.795625 -1.87125 3.40375 -1 3 C-0.67 2.01 -0.34 1.02 0 0 Z " fill="#333333" transform="translate(174,47)"/>
<path d="M0 0 C0.99 0.33 1.98 0.66 3 1 C2.04578192 2.14926266 1.08647955 3.29430541 0.125 4.4375 C-0.40867187 5.07558594 -0.94234375 5.71367188 -1.4921875 6.37109375 C-3 8 -3 8 -5 9 C-5 7.35 -5 5.7 -5 4 C-3.35 3.34 -1.7 2.68 0 2 C0 1.34 0 0.68 0 0 Z " fill="#3D3D3D" transform="translate(99,79)"/>
<path d="M0 0 C2.5 -0.375 2.5 -0.375 5 0 C5.66 0.99 6.32 1.98 7 3 C6.34 3 5.68 3 5 3 C4.67 3.66 4.34 4.32 4 5 C4 4.01 4 3.02 4 2 C2.68 2 1.36 2 0 2 C-0.12375 2.763125 -0.2475 3.52625 -0.375 4.3125 C-1 7 -1 7 -3 10 C-2.25 3.375 -2.25 3.375 0 0 Z " fill="#494949" transform="translate(308,185)"/>
<path d="M0 0 C1.46726798 3.81489674 0.43336419 6.29011622 -1 10 C-0.34 10 0.32 10 1 10 C1 11.65 1 13.3 1 15 C0.34 14.34 -0.32 13.68 -1 13 C-1.99 13.495 -1.99 13.495 -3 14 C-2.48594831 9.03083364 -1.76615118 4.70973649 0 0 Z " fill="#484848" transform="translate(51,140)"/>
<path d="M0 0 C0.91771699 3.09729483 1.48240429 5.78397139 1 9 C-1.5 11.3125 -1.5 11.3125 -4 13 C-3.52343588 11.20763933 -3.04366502 9.41613103 -2.5625 7.625 C-2.29566406 6.62726563 -2.02882813 5.62953125 -1.75390625 4.6015625 C-1 2 -1 2 0 0 Z " fill="#616161" transform="translate(99,107)"/>
<path d="M0 0 C0.66 0.33 1.32 0.66 2 1 C1.34 1.66 0.68 2.32 0 3 C0 3.99 0 4.98 0 6 C-4 6 -4 6 -6 5 C-4.02 3.35 -2.04 1.7 0 0 Z " fill="#565656" transform="translate(259,278)"/>
<path d="M0 0 C4.875 1.75 4.875 1.75 6 4 C4.02 4.99 4.02 4.99 2 6 C2 5.34 2 4.68 2 4 C1.34 4 0.68 4 0 4 C0 2.68 0 1.36 0 0 Z " fill="#383838" transform="translate(139,243)"/>
<path d="M0 0 C1 2 1 2 0.4375 4.0625 C-1 6 -1 6 -4.125 6.75 C-5.548125 6.87375 -5.548125 6.87375 -7 7 C-4.66666667 4.66666667 -2.33333333 2.33333333 0 0 Z " fill="#545454" transform="translate(279,233)"/>
<path d="M0 0 C0.99 0 1.98 0 3 0 C1.75023244 3.65316671 1.32901247 4.78065836 -2 7 C-2.33 5.68 -2.66 4.36 -3 3 C-2.34 2.67 -1.68 2.34 -1 2 C-0.34 2.33 0.32 2.66 1 3 C0.67 2.01 0.34 1.02 0 0 Z " fill="#535353" transform="translate(290,256)"/>
<path d="M0 0 C0.66 0.33 1.32 0.66 2 1 C2 1.99 2 2.98 2 4 C0.02 4.99 -1.96 5.98 -4 7 C-2.92598892 4.08482708 -2.22189824 2.22189824 0 0 Z " fill="#3A3A3A" transform="translate(73,97)"/>
<path d="M0 0 C1.53445094 3.06890187 0.54984289 5.70094266 0 9 C-1.32 9 -2.64 9 -4 9 C-2.94124926 5.59687262 -1.99097846 2.98646769 0 0 Z " fill="#5D5D5D" transform="translate(108,90)"/>
<path d="M0 0 C0.66 1.65 1.32 3.3 2 5 C-3.75 3.25 -3.75 3.25 -6 1 C-3.92446352 0.4465236 -2.15634036 0 0 0 Z " fill="#494949" transform="translate(116,297)"/>
<path d="M0 0 C-0.66 1.65 -1.32 3.3 -2 5 C-3.65 4.67 -5.3 4.34 -7 4 C-2.25 0 -2.25 0 0 0 Z " fill="#3A3A3A" transform="translate(250,286)"/>
<path d="M0 0 C0.66 0.33 1.32 0.66 2 1 C1.67 2.32 1.34 3.64 1 5 C-0.98 5.33 -2.96 5.66 -5 6 C-3.35 4.02 -1.7 2.04 0 0 Z " fill="#383838" transform="translate(97,72)"/>
<path d="M0 0 C2.475 0.495 2.475 0.495 5 1 C5 1.99 5 2.98 5 4 C3.0625 3.6875 3.0625 3.6875 1 3 C0.67 2.01 0.34 1.02 0 0 Z " fill="#080808" transform="translate(89,275)"/>
<path d="M0 0 C2 2 2 2 2 4 C2.66 4 3.32 4 4 4 C4 4.66 4 5.32 4 6 C3.01 6.33 2.02 6.66 1 7 C0.34 6.67 -0.32 6.34 -1 6 C-1.042721 4.33388095 -1.04063832 2.66617115 -1 1 C-0.67 0.67 -0.34 0.34 0 0 Z " fill="#090909" transform="translate(266,246)"/>
<path d="M0 0 C0.66 1.32 1.32 2.64 2 4 C0.1875 5.0625 0.1875 5.0625 -2 6 C-2.99 5.67 -3.98 5.34 -5 5 C-3.35 3.35 -1.7 1.7 0 0 Z " fill="#585858" transform="translate(286,226)"/>
<path d="M0 0 C1.32 0 2.64 0 4 0 C4 1.32 4 2.64 4 4 C2.68 4.33 1.36 4.66 0 5 C0 3.35 0 1.7 0 0 Z " fill="#070707" transform="translate(308,187)"/>
<path d="" fill="#FFFFFF" transform="translate(0,0)"/>
<path d="" fill="#FFFFFF" transform="translate(0,0)"/>
<path d="" fill="#FFFFFF" transform="translate(0,0)"/>
<path d="" fill="#FFFFFF" transform="translate(0,0)"/>
<path d="" fill="#FFFFFF" transform="translate(0,0)"/>
<path d="" fill="#FFFFFF" transform="translate(0,0)"/>
<path d="" fill="#FFFFFF" transform="translate(0,0)"/>
<path d="" fill="#FFFFFF" transform="translate(0,0)"/>
<path d="" fill="#00FFFF" transform="translate(0,0)"/>
<path d="" fill="#FFFFFF" transform="translate(0,0)"/>
<path d="" fill="#FFFFFF" transform="translate(0,0)"/>
<path d="" fill="#FFFFFF" transform="translate(0,0)"/>
<path d="" fill="#FFFFFF" transform="translate(0,0)"/>
<path d="" fill="#FFFFFF" transform="translate(0,0)"/>
<path d="" fill="#FFFFFF" transform="translate(0,0)"/>
<path d="" fill="#FFFFFF" transform="translate(0,0)"/>
<path d="" fill="#FFFFFF" transform="translate(0,0)"/>
<path d="" fill="#FFFFFF" transform="translate(0,0)"/>
<path d="" fill="#FFFFFF" transform="translate(0,0)"/>
<path d="" fill="#FFFFFF" transform="translate(0,0)"/>
<path d="" fill="#FFFFFF" transform="translate(0,0)"/>
<path d="" fill="#FFFFFF" transform="translate(0,0)"/>
<path d="" fill="#FFFFFF" transform="translate(0,0)"/>
<path d="" fill="#FFFFFF" transform="translate(0,0)"/>
<path d="" fill="#FFFFFF" transform="translate(0,0)"/>
<path d="" fill="#FFFFFF" transform="translate(0,0)"/>
<path d="" fill="#FFFFFF" transform="translate(0,0)"/>
<path d="" fill="#FFFFFF" transform="translate(0,0)"/>
<path d="" fill="#FFFFFF" transform="translate(0,0)"/>
<path d="" fill="#FFFFFF" transform="translate(0,0)"/>
<path d="" fill="#FFFFFF" transform="translate(0,0)"/>
<path d="" fill="#FFFFFF" transform="translate(0,0)"/>
<path d="" fill="#FFFFFF" transform="translate(0,0)"/>
<path d="" fill="#FFFFFF" transform="translate(0,0)"/>
<path d="" fill="#FFFFFF" transform="translate(0,0)"/>
<path d="" fill="#FFFFFF" transform="translate(0,0)"/>
<path d="" fill="#FFFFFF" transform="translate(0,0)"/>
<path d="" fill="#FFFFFF" transform="translate(0,0)"/>
<path d="" fill="#FFFFFF" transform="translate(0,0)"/>
<path d="" fill="#FFFFFF" transform="translate(0,0)"/>
<path d="" fill="#00FFFF" transform="translate(0,0)"/>
<path d="" fill="#FFFFFF" transform="translate(0,0)"/>
<path d="" fill="#FFFFFF" transform="translate(0,0)"/>
<path d="" fill="#FFFFFF" transform="translate(0,0)"/>
<path d="" fill="#FFFFFF" transform="translate(0,0)"/>
<path d="" fill="#FFFFFF" transform="translate(0,0)"/>
<path d="" fill="#FFFFFF" transform="translate(0,0)"/>
<path d="" fill="#FFFFFF" transform="translate(0,0)"/>
<path d="" fill="#FFFFFF" transform="translate(0,0)"/>
<path d="" fill="#FFFFFF" transform="translate(0,0)"/>
<path d="" fill="#FFFFFF" transform="translate(0,0)"/>
<path d="" fill="#FFFFFF" transform="translate(0,0)"/>
<path d="" fill="#FFFFFF" transform="translate(0,0)"/>
<path d="" fill="#FFFFFF" transform="translate(0,0)"/>
<path d="" fill="#FFFFFF" transform="translate(0,0)"/>
<path d="" fill="#FFFFFF" transform="translate(0,0)"/>
<path d="" fill="#FFFFFF" transform="translate(0,0)"/>
<path d="" fill="#FFFFFF" transform="translate(0,0)"/>
<path d="" fill="#FFFFFF" transform="translate(0,0)"/>
<path d="" fill="#FFFFFF" transform="translate(0,0)"/>
<path d="" fill="#FFFFFF" transform="translate(0,0)"/>
<path d="" fill="#FFFFFF" transform="translate(0,0)"/>
<path d="" fill="#FFFFFF" transform="translate(0,0)"/>
<path d="" fill="#FFFFFF" transform="translate(0,0)"/>
<path d="" fill="#FFFFFF" transform="translate(0,0)"/>
<path d="" fill="#FFFFFF" transform="translate(0,0)"/>
<path d="" fill="#FFFFFF" transform="translate(0,0)"/>
<path d="" fill="#FFFFFF" transform="translate(0,0)"/>
<path d="" fill="#FFFFFF" transform="translate(0,0)"/>
<path d="" fill="#FFFFFF" transform="translate(0,0)"/>
<path d="" fill="#FFFFFF" transform="translate(0,0)"/>
<path d="" fill="#FFFFFF" transform="translate(0,0)"/>
<path d="" fill="#FFFFFF" transform="translate(0,0)"/>
<path d="" fill="#FFFFFF" transform="translate(0,0)"/>
<path d="" fill="#FFFFFF" transform="translate(0,0)"/>
<path d="" fill="#FFFFFF" transform="translate(0,0)"/>
<path d="" fill="#FFFFFF" transform="translate(0,0)"/>
<path d="" fill="#FFFFFF" transform="translate(0,0)"/>
<path d="" fill="#FFFFFF" transform="translate(0,0)"/>
<path d="" fill="#FFFFFF" transform="translate(0,0)"/>
<path d="" fill="#FFFFFF" transform="translate(0,0)"/>
<path d="" fill="#FFFFFF" transform="translate(0,0)"/>
<path d="" fill="#FFFFFF" transform="translate(0,0)"/>
<path d="" fill="#FFFFFF" transform="translate(0,0)"/>
<path d="" fill="#FFFFFF" transform="translate(0,0)"/>
<path d="" fill="#FFFFFF" transform="translate(0,0)"/>
<path d="" fill="#FFFFFF" transform="translate(0,0)"/>
<path d="" fill="#FFFFFF" transform="translate(0,0)"/>
<path d="" fill="#FFFFFF" transform="translate(0,0)"/>
<path d="" fill="#FFFFFF" transform="translate(0,0)"/>
</svg>
