<?xml version="1.0" encoding="UTF-8"?>
<svg version="1.1" xmlns="http://www.w3.org/2000/svg" width="500" height="500">
<path d="M0 0 C9.37846386 8.04867057 16.81190638 17.70135413 22.79296875 28.4921875 C23.23640625 29.24242187 23.67984375 29.99265625 24.13671875 30.765625 C33.82647128 48.37740493 34.34232298 70.98489975 29.765625 90.20703125 C23.09098836 112.75068353 7.53748378 131.61412726 -13.02734375 142.96484375 C-34.69878755 153.37459132 -58.74622308 155.3683195 -81.49755859 147.48974609 C-89.1070965 144.67636707 -96.64068525 141.31745691 -103.20703125 136.4921875 C-103.20703125 135.8321875 -103.20703125 135.1721875 -103.20703125 134.4921875 C-104.52703125 134.1621875 -105.84703125 133.8321875 -107.20703125 133.4921875 C-107.20703125 132.8321875 -107.20703125 132.1721875 -107.20703125 131.4921875 C-107.7690625 131.26144531 -108.33109375 131.03070313 -108.91015625 130.79296875 C-122.72957256 122.96666665 -130.77983832 104.2807692 -134.89453125 89.7421875 C-140.70190623 68.06997248 -137.82264883 44.70422493 -126.83203125 25.2421875 C-123.65634047 20.00471926 -120.08730913 15.22187944 -116.20703125 10.4921875 C-115.44390625 9.4815625 -114.68078125 8.4709375 -113.89453125 7.4296875 C-113.33765625 6.7903125 -112.78078125 6.1509375 -112.20703125 5.4921875 C-111.54703125 5.4921875 -110.88703125 5.4921875 -110.20703125 5.4921875 C-109.87703125 4.5021875 -109.54703125 3.5121875 -109.20703125 2.4921875 C-107.11504432 0.75377583 -105.05353679 -0.8273525 -102.83203125 -2.3828125 C-102.19571777 -2.82898926 -101.5594043 -3.27516602 -100.90380859 -3.73486328 C-71.54707406 -23.8729794 -27.77494325 -22.49882295 0 0 Z " fill="#161616" transform="translate(303.20703125,183.5078125)"/>
<path d="M0 0 C3.20789593 1.36775898 6.10573575 3.1600554 9.0625 5 C10.7588672 6.01994282 12.45548342 7.03947157 14.15234375 8.05859375 C14.97976074 8.56245605 15.80717773 9.06631836 16.65966797 9.58544922 C19.78209533 11.4727165 22.94751494 13.26941168 26.125 15.0625 C33.53484354 19.28672176 40.89478342 23.59651913 48.2265625 27.95483398 C49.7658806 28.86202297 51.32110685 29.7421143 52.87890625 30.6171875 C55.92433033 32.60260209 56.80250107 34.60708637 58 38 C57.92776805 41.61159747 57.44122671 43.39535598 55.3125 46.3125 C52.38824916 48.44641278 50.61594466 48.78098197 47 49 C44.48045313 48.08107111 42.39258185 47.14398454 40.0625 45.875 C39.38501709 45.52099121 38.70753418 45.16698242 38.00952148 44.80224609 C35.65885577 43.55938939 33.32808582 42.28465018 31 41 C29.65615234 40.2584668 29.65615234 40.2584668 28.28515625 39.50195312 C22.42407437 36.24981647 16.59745379 32.94046598 10.78710938 29.59863281 C8.16160573 28.09269397 5.52736672 26.60333218 2.890625 25.1171875 C1.36413131 24.24558284 -0.16193844 23.37323513 -1.6875 22.5 C-2.37577881 22.11537598 -3.06405762 21.73075195 -3.77319336 21.33447266 C-7.70973897 19.05408053 -10.53458266 16.84875625 -13 13 C-13.45793285 8.57331583 -13.4915904 6.7373856 -11 3 C-10.34 3 -9.68 3 -9 3 C-9 2.34 -9 1.68 -9 1 C-5.81702122 -0.59148939 -3.54334928 -0.33712738 0 0 Z " fill="#262626" transform="translate(98,154)"/>
<path d="M0 0 C3.03662358 2.07768982 3.85739082 3.61178613 5.125 7.0625 C4.93486238 13.05183491 2.03235757 16.93815851 -1 22 C-2.17713291 24.10494794 -3.33556893 26.21961261 -4.49389648 28.33496094 C-24.05201967 63.99194743 -24.05201967 63.99194743 -30 69 C-32.98585409 69.72238405 -35.0178707 70.20927223 -38 70 C-40.85993478 68.23535939 -42.49782849 67.00434303 -44 64 C-44.37799975 59.32565019 -43.5921239 56.46406324 -41.4140625 52.34375 C-40.86395508 51.29832031 -40.31384766 50.25289062 -39.74707031 49.17578125 C-37.03072492 44.23807571 -34.24210517 39.35168143 -31.375 34.5 C-30.77179932 33.47624268 -30.16859863 32.45248535 -29.54711914 31.39770508 C-28.30761199 29.29624273 -27.06648914 27.19573251 -25.82373047 25.09619141 C-24.06423392 22.10905147 -22.32829548 19.10939655 -20.59765625 16.10546875 C-19.54474355 14.29920353 -18.49138094 12.49320047 -17.4375 10.6875 C-16.9616748 9.8521875 -16.48584961 9.016875 -15.99560547 8.15625 C-11.8931895 1.1959876 -8.51733745 -2.32291021 0 0 Z " fill="#272727" transform="translate(342,86)"/>
<path d="M0 0 C2.94855414 1.53837607 4.54706386 2.6607629 5.6328125 5.87109375 C6.24531322 9.31803929 6.33910088 11.24408761 4.875 14.5078125 C2.58330686 17.55385463 0.28228365 19.00836935 -3 20.9375 C-3.57886963 21.28103516 -4.15773926 21.62457031 -4.75415039 21.97851562 C-9.15673418 24.57118183 -13.63056761 27.03106524 -18.1328125 29.4453125 C-21.38610787 31.20936094 -24.60178168 33.03511534 -27.8125 34.875 C-28.39717041 35.20838379 -28.98184082 35.54176758 -29.58422852 35.88525391 C-32.64747269 37.63555957 -35.69421854 39.40883179 -38.72265625 41.21875 C-50.89245276 48.44476843 -50.89245276 48.44476843 -57 49 C-60.02518344 47.68470285 -61.68297038 46.31702962 -64 44 C-64.37109375 42.01171875 -64.37109375 42.01171875 -64.4375 39.6875 C-64.49744141 38.54861328 -64.49744141 38.54861328 -64.55859375 37.38671875 C-63.52350058 32.96404795 -59.75885027 30.51297556 -56.12841797 28.05883789 C-55.09346191 27.45289795 -54.05850586 26.84695801 -52.9921875 26.22265625 C-52.42605743 25.88882431 -51.85992737 25.55499237 -51.27664185 25.21104431 C-49.48018711 24.15436159 -47.67769221 23.10849762 -45.875 22.0625 C-44.68971607 21.3658943 -43.50481713 20.66863311 -42.3203125 19.97070312 C-36.08098444 16.30664789 -29.78439133 12.76555979 -23.41650391 9.32885742 C-21.28024967 8.15411184 -19.18953751 6.93465871 -17.109375 5.6640625 C-16.00078125 4.99117187 -14.8921875 4.31828125 -13.75 3.625 C-12.07164062 2.59246094 -12.07164062 2.59246094 -10.359375 1.5390625 C-6.56899134 -0.19746211 -4.12298943 -0.40537786 0 0 Z " fill="#242424" transform="translate(407,150)"/>
<path d="M0 0 C5.66139004 3.83888777 8.35688065 8.49375888 11.5625 14.4375 C12.60496469 16.31871033 13.64930064 18.19888469 14.6953125 20.078125 C15.23317383 21.04943359 15.77103516 22.02074219 16.32519531 23.02148438 C19.6143021 28.87091627 23.08790081 34.61306386 26.54711914 40.36303711 C37.29721465 58.38420529 37.29721465 58.38420529 36 65 C34.01216563 67.91963173 32.5685303 69.61102978 29.0625 70.48046875 C25.08451771 70.75922887 23.64665093 70.55383987 20.49609375 67.85546875 C17.93292874 64.92327216 16.02195484 62.05155416 14.0625 58.6875 C13.69334473 58.0586792 13.32418945 57.4298584 12.94384766 56.78198242 C12.10405028 55.34858178 11.26803341 53.91296201 10.43505859 52.47558594 C8.8144159 49.67985322 7.18298442 46.89056119 5.55078125 44.1015625 C2.60597705 39.06578696 -0.33567471 34.02825694 -3.25732422 28.97900391 C-4.47496582 26.89751569 -5.71266458 24.82768891 -6.96533203 22.76708984 C-7.91835205 21.18661865 -7.91835205 21.18661865 -8.890625 19.57421875 C-9.47102539 18.62506592 -10.05142578 17.67591309 -10.64941406 16.69799805 C-12.62416756 12.75313164 -13.00724073 9.28304167 -12 5 C-9.35518978 -0.03773375 -5.40818701 -0.63625729 0 0 Z " fill="#242424" transform="translate(162,88)"/>
<path d="M0 0 C2.85696213 1.93536144 3.35928451 3.70083754 4 7 C4.09659352 9.05095066 4.13811772 11.10474739 4.14526367 13.15795898 C4.15164352 14.40282578 4.15802338 15.64769257 4.16459656 16.93028259 C4.16612527 18.28555258 4.16723921 19.64082309 4.16796875 20.99609375 C4.17118367 22.39087457 4.17454792 23.78565506 4.17805481 25.18043518 C4.18403629 28.10149924 4.18589569 31.02253376 4.18530273 33.94360352 C4.18520109 37.68049792 4.19885948 41.41720239 4.21607494 45.15405178 C4.2272103 48.03401047 4.22922148 50.91392343 4.22869301 53.79390144 C4.22987057 55.1713635 4.23427977 56.54882684 4.24202538 57.92626762 C4.25185699 59.85503554 4.24767479 61.78385937 4.24291992 63.71264648 C4.24434494 64.80866684 4.24576996 65.90468719 4.24723816 67.03392029 C3.99211819 70.09455688 3.36470487 72.25995193 2 75 C-1.35930401 77.61279201 -4.8923327 77.50445037 -9 77 C-11.63016161 74.8272578 -13.47336894 73.05326212 -15 70 C-15.10662227 68.06110574 -15.14884372 66.11854262 -15.16113281 64.17675781 C-15.17074036 62.9549884 -15.1803479 61.73321899 -15.19024658 60.47442627 C-15.19509547 59.13399441 -15.19937408 57.79356038 -15.203125 56.453125 C-15.20887795 55.0803019 -15.21463566 53.70747882 -15.22039795 52.33465576 C-15.23090994 49.45291774 -15.23675073 46.57120762 -15.24023438 43.68945312 C-15.24570768 40.00632354 -15.26970941 36.32356579 -15.29820633 32.64055252 C-15.31688438 29.80258123 -15.32204112 26.96469839 -15.32357025 24.12667084 C-15.32805074 22.1115236 -15.34667612 20.09642379 -15.36553955 18.08135986 C-15.3610379 16.22979279 -15.3610379 16.22979279 -15.35644531 14.34082031 C-15.36009094 13.25875305 -15.36373657 12.17668579 -15.36749268 11.06182861 C-14.84224068 6.68560099 -13.19792174 3.37539163 -10.3125 0.0625 C-6.7777926 -1.56155475 -3.68707789 -1.0276749 0 0 Z " fill="#1B1B1B" transform="translate(258,361)"/>
<path d="M0 0 C3.51486386 1.34078586 6.72894008 3.15153401 10 5 C10.97195313 5.5465625 11.94390625 6.093125 12.9453125 6.65625 C15.2161232 7.94760259 17.48109717 9.24661376 19.7421875 10.5546875 C23.04551458 12.46101282 26.36736103 14.33231759 29.6953125 16.1953125 C30.70311768 16.76056641 31.71092285 17.32582031 32.74926758 17.90820312 C34.7450228 19.02672952 36.74218927 20.14274275 38.7409668 21.25585938 C54.88048689 30.32073033 54.88048689 30.32073033 58 35 C58.33835771 38.65426328 58.20170338 41.38144296 57.0625 44.875 C54.3284275 47.69192318 52.41099326 47.84374504 48.58374023 48.17871094 C43.60434766 47.83429864 39.70664015 45.19878762 35.5 42.6875 C34.0603186 41.86415161 34.0603186 41.86415161 32.59155273 41.02416992 C29.71421011 39.3714725 26.85629119 37.68875241 24 36 C22.43967198 35.09485293 20.87854099 34.19108789 19.31640625 33.2890625 C15.86493053 31.28666182 12.43394795 29.25227637 9.01123047 27.20117188 C6.92061118 25.95258643 4.82239809 24.71754913 2.72265625 23.484375 C1.35661994 22.6773387 -0.0092714 21.87005693 -1.375 21.0625 C-2.00011475 20.69680908 -2.62522949 20.33111816 -3.26928711 19.9543457 C-10.57607802 15.60484748 -10.57607802 15.60484748 -11.875 10.6875 C-12.01715143 6.49403284 -11.24819541 4.49719286 -9 1 C-5.97275019 -0.51362491 -3.27304305 -0.52417449 0 0 Z " fill="#232323" transform="translate(357,299)"/>
<path d="M0 0 C2.875 1.5625 2.875 1.5625 5 4 C6.06717843 7.66842587 6.36474142 9.9318287 5.125 13.5625 C-0.95037272 20.53130989 -10.57155904 24.73259864 -18.5 29.25 C-27.89624535 34.5949775 -27.89624535 34.5949775 -37.16015625 40.1640625 C-37.91554688 40.62780273 -38.6709375 41.09154297 -39.44921875 41.56933594 C-40.8026484 42.40553531 -42.14856525 43.25409607 -43.484375 44.11816406 C-48.14452092 46.97734741 -52.51597318 48.03212905 -58 48 C-61 47.125 -61 47.125 -63 45 C-64.07343592 41.23941984 -64.53554104 37.71764993 -63.359375 33.9453125 C-61.44341859 31.20351281 -59.19194617 30.00191676 -56.3125 28.3125 C-55.74160645 27.9736377 -55.17071289 27.63477539 -54.58251953 27.28564453 C-53.35926069 26.56002737 -52.13358849 25.8384661 -50.90576172 25.12060547 C-48.9903381 23.99431871 -47.08942885 22.84674548 -45.19140625 21.69140625 C-38.86047134 17.84276187 -32.50339948 14.09157184 -25.95703125 10.6171875 C-23.6076663 9.33233005 -21.30984858 8.00487872 -19.01171875 6.6328125 C-18.30781006 6.21902344 -17.60390137 5.80523437 -16.87866211 5.37890625 C-15.49336723 4.5628867 -14.11480117 3.73529798 -12.74438477 2.89453125 C-8.34853756 0.32877161 -5.22145792 -0.58087124 0 0 Z " fill="#212121" transform="translate(152,303)"/>
<path d="M0 0 C3.75608682 3.82355914 4.50519563 6.33314764 4.53344727 11.63867188 C4.54206284 12.28485977 4.55067841 12.93104767 4.55955505 13.59681702 C4.58215714 15.72120848 4.57548864 17.84427468 4.56640625 19.96875 C4.57164415 21.45178619 4.57792124 22.93481905 4.58518982 24.41784668 C4.59558302 27.52140006 4.59104813 30.62449461 4.57641602 33.72802734 C4.55922113 37.69964001 4.58273546 41.66980686 4.61790562 45.64125824 C4.63989488 48.70230645 4.6384348 51.7630094 4.6301403 54.82411194 C4.62932176 56.28810717 4.63616686 57.75212799 4.65091133 59.21604919 C4.66839021 61.26537272 4.65379474 63.31210745 4.63110352 65.36132812 C4.62966087 67.10742371 4.62966087 67.10742371 4.62818909 68.88879395 C3.81310234 72.9256403 2.14221996 74.42964272 -1 77 C-4.54667945 77.94446026 -7.99000872 77.36256097 -11.4375 76.125 C-13 75 -13 75 -14 73 C-15.09121987 62.34310233 -15.15924469 51.62081093 -15.13037109 40.91870117 C-15.12501135 38.56747981 -15.13035816 36.21645003 -15.13671875 33.86523438 C-15.14219153 26.08202202 -15.02185068 18.30344284 -14.6796875 10.52734375 C-14.65770294 9.81332901 -14.63571838 9.09931427 -14.61306763 8.36366272 C-14.46206473 5.50116631 -14.32986759 3.46448923 -12.64501953 1.09204102 C-8.75144361 -1.49269705 -4.30763328 -1.57092192 0 0 Z " fill="#1E1E1E" transform="translate(253,64)"/>
<path d="M0 0 C4.29511529 2.81591287 6.57279313 6.17545104 8.9375 10.625 C9.63457629 11.88978645 10.33249712 13.15410779 11.03125 14.41796875 C11.36769531 15.03333496 11.70414062 15.64870117 12.05078125 16.28271484 C13.29466315 18.53309172 14.60651774 20.73768209 15.9375 22.9375 C16.411875 23.72382813 16.88625 24.51015625 17.375 25.3203125 C18.25555861 26.77238751 19.1365003 28.22423182 20.01953125 29.67480469 C36.76059949 57.19700256 36.76059949 57.19700256 35.375 64.125 C33.69655575 67.63447433 32.63022723 68.62858083 29 70 C24.92560641 70 22.73634248 69.53878718 19.4375 67.125 C16.72736846 63.65047239 14.76017303 60.09849344 12.71875 56.203125 C10.83379423 52.69025289 8.81564965 49.28343381 6.75 45.875 C5.98028075 44.60037393 5.21075405 43.32563156 4.44140625 42.05078125 C4.0458252 41.3954541 3.65024414 40.74012695 3.24267578 40.06494141 C1.04136667 36.40704898 -1.13903893 32.73699244 -3.3125 29.0625 C-3.72081055 28.37720215 -4.12912109 27.6919043 -4.54980469 26.98583984 C-13.10554103 12.49311144 -13.10554103 12.49311144 -12 5 C-8.62505893 0.09099481 -5.84787119 -0.93983644 0 0 Z " fill="#232323" transform="translate(315,343)"/>
<path d="M0 0 C1.08850754 -0.00630432 2.17701508 -0.01260864 3.29850769 -0.019104 C5.05013969 -0.01303131 5.05013969 -0.01303131 6.8371582 -0.00683594 C8.04934525 -0.00874939 9.26153229 -0.01066284 10.51045227 -0.01263428 C13.07500415 -0.01399453 15.63956294 -0.01030929 18.20410156 -0.00195312 C22.10603567 0.00870194 26.00750447 -0.0018302 29.90942383 -0.01464844 C32.40616963 -0.01332591 34.90291514 -0.01076159 37.3996582 -0.00683594 C39.13610847 -0.01290863 39.13610847 -0.01290863 40.90763855 -0.019104 C55.02513398 0.06149346 55.02513398 0.06149346 60.45043945 2.25878906 C63.51816361 5.68402481 63.92262446 7.88659137 63.73950195 12.35644531 C63.32880071 15.05930349 62.48185612 16.44502418 60.45043945 18.25878906 C57.07542764 19.41068949 53.83681426 19.39171711 50.29248047 19.40405273 C49.04761368 19.41043259 47.80274689 19.41681244 46.52015686 19.42338562 C45.16488687 19.42491433 43.80961636 19.42602827 42.4543457 19.42675781 C41.05956488 19.42997273 39.66478439 19.43333698 38.27000427 19.43684387 C35.34894021 19.44282536 32.42790569 19.44468475 29.50683594 19.4440918 C25.76994154 19.44399016 22.03323706 19.45764854 18.29638767 19.47486401 C15.41642898 19.48599936 12.53651602 19.48801054 9.65653801 19.48748207 C8.27907595 19.48865963 6.90161261 19.49306883 5.52417183 19.50081444 C3.59540391 19.51064605 1.66658008 19.50646385 -0.26220703 19.50170898 C-1.35822739 19.503134 -2.45424774 19.50455902 -3.58348083 19.50602722 C-6.67483793 19.24834654 -8.80823147 18.69859636 -11.54956055 17.25878906 C-14.03342114 13.53299817 -13.92998175 11.67167504 -13.54956055 7.25878906 C-12.21219301 4.09133964 -11.37946973 2.66910334 -8.28312683 1.13824463 C-5.36019278 0.19786479 -3.06431522 0.00511331 0 0 Z " fill="#232323" transform="translate(76.549560546875,242.7412109375)"/>
<path d="M0 0 C2.09375 0.41015625 2.09375 0.41015625 4.65625 1.91015625 C6.72623541 5.51013088 6.86606229 8.42006909 6.09375 12.41015625 C4.08946397 17.04551499 1.57487793 21.36804657 -0.96875 25.72265625 C-1.63366386 26.89302793 -2.29708659 28.06424808 -2.95898438 29.23632812 C-6.59808505 35.63921336 -10.44164046 41.89054578 -14.43041992 48.08081055 C-16.09684996 50.71098573 -17.59792979 53.39650889 -19.03125 56.16015625 C-25.11515411 67.5146083 -25.11515411 67.5146083 -28.90625 69.41015625 C-36.01226719 69.98322215 -36.01226719 69.98322215 -39.34375 67.84765625 C-41.41441959 64.61741169 -41.67932119 62.23609636 -41.90625 58.41015625 C-40.7890625 55.19140625 -40.7890625 55.19140625 -39.03125 51.91015625 C-38.55957397 51.01719849 -38.55957397 51.01719849 -38.07836914 50.10620117 C-34.94255143 44.26075639 -31.48997183 38.59561795 -28.03125 32.9375 C-26.2047268 29.93551554 -24.49959053 26.88535767 -22.84375 23.78515625 C-20.61016471 19.64061465 -18.27584217 15.56606586 -15.84375 11.53515625 C-15.21339844 10.48585938 -14.58304688 9.4365625 -13.93359375 8.35546875 C-9.86110207 2.43897795 -7.23504557 -0.47027796 0 0 Z " fill="#232323" transform="translate(195.90625,345.58984375)"/>
<path d="M0 0 C0.64604187 -0.00686325 1.29208374 -0.0137265 1.95770264 -0.02079773 C4.08734287 -0.03905716 6.21624576 -0.03522974 8.34594727 -0.02954102 C9.83041116 -0.03410344 11.31487295 -0.0394092 12.79933167 -0.04542542 C15.90878893 -0.05435491 19.01798934 -0.05193562 22.12744141 -0.04199219 C26.10672894 -0.03050546 30.08512868 -0.05070913 34.06429958 -0.07990932 C37.12959906 -0.09828126 40.1946862 -0.09797692 43.26002693 -0.0922718 C44.72680977 -0.09211869 46.19360709 -0.09815472 47.66033745 -0.11056328 C49.714224 -0.12549077 51.7664761 -0.11478645 53.8203125 -0.09765625 C54.98739243 -0.09749008 56.15447235 -0.09732391 57.35691833 -0.09715271 C61.13625258 0.51037207 62.79151198 1.71853673 65.47485352 4.40405273 C66.79713365 8.20560812 66.67494519 9.88381439 65.22485352 13.65405273 C63.47485352 16.40405273 63.47485352 16.40405273 60.47485352 18.40405273 C57.60415649 18.6782074 57.60415649 18.6782074 54.06323242 18.71044922 C53.41733658 18.71877274 52.77144073 18.72709625 52.10597229 18.735672 C49.97105884 18.75976419 47.83645098 18.76854302 45.70141602 18.77514648 C44.21552438 18.78411366 42.72963367 18.79323552 41.2437439 18.80250549 C38.12837531 18.81899605 35.01311419 18.82669566 31.89770508 18.82958984 C27.91044338 18.83497296 23.92419517 18.87264794 19.93721962 18.91833401 C16.86764867 18.94811418 13.79832146 18.95531359 10.72861862 18.95631599 C9.25901016 18.96051671 7.78940086 18.97294534 6.31993484 18.99383354 C4.26095891 19.02077087 2.20432734 19.0159192 0.14526367 19.00341797 C-1.60988052 19.01102394 -1.60988052 19.01102394 -3.40048218 19.01878357 C-7.48845568 18.2145361 -8.98646934 16.6448041 -11.52514648 13.40405273 C-11.920592 9.58141273 -11.73775526 7.04187905 -10.52514648 3.40405273 C-7.240751 0.1046347 -4.54266004 0.02104454 0 0 Z " fill="#171717" transform="translate(371.525146484375,238.595947265625)"/>
<path d="M0 0 C0.66 0.99 1.32 1.98 2 3 C1.67 3.33 1.34 3.66 1 4 C0.89024977 5.93146803 0.85088779 7.86696738 0.83886719 9.80151367 C0.82925964 11.04337936 0.8196521 12.28524506 0.80975342 13.56474304 C0.8049042 14.93248309 0.80062568 16.30022525 0.796875 17.66796875 C0.79112397 19.06464134 0.78536623 20.46131391 0.77960205 21.85798645 C0.76907931 24.79277922 0.7632459 27.72754452 0.75976562 30.66235352 C0.75429691 34.4138904 0.73030963 38.16506137 0.70179367 41.91648388 C0.68311506 44.80506934 0.67795879 47.6935679 0.67642975 50.58220863 C0.67341132 51.9644399 0.66541017 53.34666992 0.65224457 54.72884178 C0.63508693 56.66965873 0.63892311 58.61062641 0.64355469 60.55151367 C0.63990906 61.65436203 0.63626343 62.75721039 0.63250732 63.89347839 C1.05407925 67.4571475 2.2359123 69.89976761 4 73 C1.67116797 72.06846719 0.27906747 71.42460737 -1.11663818 69.30101013 C-2.23142581 66.39717439 -2.25419446 64.04504032 -2.25878906 60.93383789 C-2.26509338 59.70899185 -2.27139771 58.48414581 -2.27789307 57.22218323 C-2.2738446 55.90233932 -2.26979614 54.58249542 -2.265625 53.22265625 C-2.26697302 51.85029532 -2.2689147 50.47793486 -2.27142334 49.10557556 C-2.27436914 46.23155158 -2.27009521 43.35765207 -2.26074219 40.48364258 C-2.24935862 36.8072596 -2.25590343 33.13116901 -2.26788712 29.45479679 C-2.27512965 26.62114782 -2.27280664 23.78756764 -2.26763153 20.95391655 C-2.2656558 18.9415302 -2.27171086 16.92914113 -2.27789307 14.91676331 C-2.26843658 13.07476601 -2.26843658 13.07476601 -2.25878906 11.19555664 C-2.25719788 10.11730118 -2.25560669 9.03904572 -2.25396729 7.92811584 C-1.99309299 4.92036565 -1.26826945 2.72362418 0 0 Z " fill="#7B7B7B" transform="translate(245,364)"/>
<path d="M0 0 C2 3 2 3 1.9375 5.875 C0.74463157 9.85122809 -0.80190671 11.37740535 -4 14 C-7.11793518 14.62145996 -7.11793518 14.62145996 -10.65454102 14.61523438 C-11.30233521 14.62078339 -11.95012939 14.6263324 -12.61755371 14.63204956 C-14.74710352 14.64380815 -16.87450715 14.61961732 -19.00390625 14.59375 C-20.48933312 14.59203796 -21.97476301 14.59210553 -23.46018982 14.59387207 C-26.56807496 14.59222109 -29.67523678 14.57356353 -32.78295898 14.54199219 C-36.76336406 14.50227978 -40.74282399 14.49795209 -44.72338963 14.50545502 C-47.78867732 14.50852643 -50.85375313 14.49639885 -53.91898918 14.47932434 C-55.38657235 14.47230203 -56.85417953 14.46916888 -58.32177925 14.47001648 C-60.37324456 14.46821568 -62.42358342 14.44681382 -64.47485352 14.41992188 C-65.64113785 14.41150269 -66.80742218 14.4030835 -68.00904846 14.39440918 C-71.24909416 13.96715259 -72.63136012 13.19246456 -75 11 C-74.67 10.34 -74.34 9.68 -74 9 C-71 10 -71 10 -70 12 C-61.72452271 12.02317605 -53.449059 12.04094195 -45.17355728 12.05181217 C-41.33086246 12.05702947 -37.48818985 12.06410622 -33.64550781 12.07543945 C-29.93672212 12.08630927 -26.2279578 12.09228553 -22.51915741 12.09487724 C-21.10458795 12.0967241 -19.69001965 12.10033053 -18.27545929 12.10573006 C-16.29335166 12.11299468 -14.3112225 12.11340852 -12.32910156 12.11352539 C-10.63699554 12.11685631 -10.63699554 12.11685631 -8.91070557 12.12025452 C-6.41960657 12.01733586 -4.37072065 11.72831998 -2 11 C-0.98617037 7.3791799 -0.50102309 3.72188582 0 0 Z " fill="#3E3E3E" transform="translate(436,243)"/>
<path d="M0 0 C0.33 0 0.66 0 1 0 C1 19.8 1 39.6 1 60 C0.67 60 0.34 60 0 60 C-0.22786458 57.98177083 -0.45572917 55.96354167 -0.68359375 53.9453125 C-0.91292961 51.92595684 -0.91292961 51.92595684 -2 50 C-2.03327472 48.39454341 -1.99845866 46.78744399 -1.92993164 45.18310547 C-1.88981461 44.18221893 -1.84969757 43.1813324 -1.80836487 42.15011597 C-1.7350016 40.52506638 -1.7350016 40.52506638 -1.66015625 38.8671875 C-1.61434921 37.76021515 -1.56854218 36.6532428 -1.52134705 35.51272583 C-1.37344134 31.96658388 -1.2180518 28.420814 -1.0625 24.875 C-0.9610966 22.47528115 -0.86017881 20.07554173 -0.75976562 17.67578125 C-0.51215124 11.7836036 -0.25838678 5.89171455 0 0 Z " fill="#111111" transform="translate(240,70)"/>
<path d="M0 0 C2.64 0 5.28 0 8 0 C7.67 0.99 7.34 1.98 7 3 C6.34 2.67 5.68 2.34 5 2 C4.34 3.32 3.68 4.64 3 6 C1.68 5.67 0.36 5.34 -1 5 C-0.67 3.35 -0.34 1.7 0 0 Z " fill="#161616" transform="translate(334,87)"/>
<path d="M0 0 C0.66 0.66 1.32 1.32 2 2 C0.68 2 -0.64 2 -2 2 C-2 2.99 -2 3.98 -2 5 C-2.66 4.67 -3.32 4.34 -4 4 C-3.67 3.34 -3.34 2.68 -3 2 C-5.64 2.99 -8.28 3.98 -11 5 C-10.1875 3.0625 -10.1875 3.0625 -9 1 C-5.75778445 -0.08073852 -3.39597063 -0.21676408 0 0 Z " fill="#606060" transform="translate(162,88)"/>
<path d="M0 0 C2.97 0.495 2.97 0.495 6 1 C0.85714286 5.42857143 0.85714286 5.42857143 -3 6 C-3 4.68 -3 3.36 -3 2 C-2.01 2 -1.02 2 0 2 C0 1.34 0 0.68 0 0 Z " fill="#474747" transform="translate(114,338)"/>
<path d="M0 0 C0.66 0.99 1.32 1.98 2 3 C-1.16952847 6.26008643 -4.39937989 9.22237877 -8 12 C-6.59023295 8.96147295 -4.91129772 6.4060405 -2.875 3.75 C-2.06675781 2.69039062 -2.06675781 2.69039062 -1.2421875 1.609375 C-0.83226562 1.07828125 -0.42234375 0.5471875 0 0 Z " fill="#565656" transform="translate(187,194)"/>
<path d="M0 0 C0.66 0.33 1.32 0.66 2 1 C2.75 4.375 2.75 4.375 3 8 C2.01 9.485 2.01 9.485 1 11 C1 9.68 1 8.36 1 7 C0.34 6.67 -0.32 6.34 -1 6 C-1.33 5.01 -1.66 4.02 -2 3 C-1.34 2.01 -0.68 1.02 0 0 Z " fill="#3E3E3E" transform="translate(155,306)"/>
<path d="M0 0 C1.65 0 3.3 0 5 0 C3.55746343 3.36591866 1.66735273 5.51047079 -1 8 C-1.33 6.35 -1.66 4.7 -2 3 C-1.34 2.67 -0.68 2.34 0 2 C0 1.34 0 0.68 0 0 Z " fill="#454545" transform="translate(316,297)"/>
<path d="M0 0 C0.66 0 1.32 0 2 0 C2 0.66 2 1.32 2 2 C2.66 2 3.32 2 4 2 C4 2.66 4 3.32 4 4 C4.66 4 5.32 4 6 4 C6 5.98 6 7.96 6 10 C3.38275905 7.63202009 1.67138271 5.10399646 0 2 C0 1.34 0 0.68 0 0 Z " fill="#636363" transform="translate(318,381)"/>
<path d="M0 0 C3.5 0.375 3.5 0.375 6.5 3.375 C2.21 3.375 -2.08 3.375 -6.5 3.375 C-3.5 0.375 -3.5 0.375 0 0 Z " fill="#6C6C6C" transform="translate(148.5,302.625)"/>
<path d="M0 0 C0.66 0.99 1.32 1.98 2 3 C1.67 3.33 1.34 3.66 1 4 C0.76321284 6.69235776 0.57801975 9.36498156 0.4375 12.0625 C0.39431641 12.82111328 0.35113281 13.57972656 0.30664062 14.36132812 C0.20026367 16.24065438 0.09960066 18.12030244 0 20 C-0.33 20 -0.66 20 -1 20 C-1.02689449 17.04160645 -1.04678741 14.08345573 -1.0625 11.125 C-1.07087891 10.28324219 -1.07925781 9.44148438 -1.08789062 8.57421875 C-1.09111328 7.76855469 -1.09433594 6.96289062 -1.09765625 6.1328125 C-1.10289307 5.38918457 -1.10812988 4.64555664 -1.11352539 3.87939453 C-1 2 -1 2 0 0 Z " fill="#383838" transform="translate(245,364)"/>
<path d="M0 0 C0.66 0.33 1.32 0.66 2 1 C1.195625 1.66 0.39125 2.32 -0.4375 3 C-3.75148924 6.87979228 -3.74577025 9.00014825 -4 14 C-4.33 14 -4.66 14 -5 14 C-5.78774617 5.96498906 -5.78774617 5.96498906 -2.5 1.9375 C-1.2625 0.9784375 -1.2625 0.9784375 0 0 Z " fill="#737373" transform="translate(348,180)"/>
<path d="M0 0 C0.66 0.33 1.32 0.66 2 1 C2 2.65 2 4.3 2 6 C1.01 6.33 0.02 6.66 -1 7 C-1.66 5.68 -2.32 4.36 -3 3 C-2.01 2.01 -1.02 1.02 0 0 Z " fill="#202020" transform="translate(253,65)"/>
<path d="M0 0 C2.44839588 3.67259383 4 6.54648201 4 11 C2.68 10.67 1.36 10.34 0 10 C0 6.7 0 3.4 0 0 Z " fill="#707070" transform="translate(328,217)"/>
<path d="M0 0 C-5.29230769 4.92307692 -5.29230769 4.92307692 -8.875 5.3125 C-9.926875 5.1578125 -9.926875 5.1578125 -11 5 C-8.10998474 1.78887193 -4.47884754 -2.23942377 0 0 Z " fill="#686868" transform="translate(215,175)"/>
<path d="M0 0 C0 0.66 0 1.32 0 2 C-1.62626404 3.38232443 -3.2925002 4.71937515 -5 6 C-6.32 5.34 -7.64 4.68 -9 4 C-2.25 0 -2.25 0 0 0 Z " fill="#5B5B5B" transform="translate(142,306)"/>
<path d="M0 0 C3.96 1.98 3.96 1.98 8 4 C8 4.33 8 4.66 8 5 C6.02 5 4.04 5 2 5 C1.34 3.35 0.68 1.7 0 0 Z " fill="#3F3F3F" transform="translate(367,305)"/>
<path d="M0 0 C2.42115191 2.42115191 2.60948898 3.64160525 3 7 C2.5625 9.8125 2.5625 9.8125 2 12 C1.67 12 1.34 12 1 12 C0.63597631 10.56496445 0.28413409 9.12683494 -0.0625 7.6875 C-0.25972656 6.88699219 -0.45695312 6.08648437 -0.66015625 5.26171875 C-1 3 -1 3 0 0 Z " fill="#414141" transform="translate(348,397)"/>
<path d="M0 0 C1.22589844 0.01353516 1.22589844 0.01353516 2.4765625 0.02734375 C3.41628906 0.04474609 3.41628906 0.04474609 4.375 0.0625 C4.375 0.3925 4.375 0.7225 4.375 1.0625 C3.3025 1.18625 2.23 1.31 1.125 1.4375 C-2.00363615 1.95893936 -3.95980424 2.46338254 -6.625 4.0625 C-6.625 3.0725 -6.625 2.0825 -6.625 1.0625 C-4.21954362 -0.14022819 -2.67503047 -0.03821472 0 0 Z " fill="#6E6E6E" transform="translate(193.625,345.9375)"/>
<path d="M0 0 C0.66 0 1.32 0 2 0 C1.11223998 3.69900008 0.05418136 7.34550461 -1 11 C-1.33 11 -1.66 11 -2 11 C-2.25 3.375 -2.25 3.375 0 0 Z " fill="#5C5C5C" transform="translate(305,345)"/>
<path d="M0 0 C0.66 0 1.32 0 2 0 C3.39195915 4.17587745 1.82323219 6.13474776 0 10 C-0.33 10 -0.66 10 -1 10 C-1.125 3.375 -1.125 3.375 0 0 Z " fill="#585858" transform="translate(361,242)"/>
<path d="M0 0 C2.375 0.25 2.375 0.25 5 1 C6.3125 3.0625 6.3125 3.0625 7 5 C2.25 3.125 2.25 3.125 0 2 C0 1.34 0 0.68 0 0 Z " fill="#4E4E4E" transform="translate(200,318)"/>
<path d="M0 0 C0.66 0.33 1.32 0.66 2 1 C-2.296875 5.00390625 -2.296875 5.00390625 -4 6 C-6.203125 5.65234375 -6.203125 5.65234375 -8 5 C-6.71475739 4.13619741 -5.42157581 3.28419631 -4.125 2.4375 C-3.04605469 1.72400391 -3.04605469 1.72400391 -1.9453125 0.99609375 C-1.30335938 0.66738281 -0.66140625 0.33867187 0 0 Z " fill="#878787" transform="translate(380,161)"/>
<path d="M0 0 C0.99 0 1.98 0 3 0 C3.33 0.66 3.66 1.32 4 2 C2.5625 4.625 2.5625 4.625 1 7 C0.67 6.01 0.34 5.02 0 4 C-0.66 3.67 -1.32 3.34 -2 3 C-1.34 3 -0.68 3 0 3 C0 2.01 0 1.02 0 0 Z " fill="#515151" transform="translate(340,101)"/>
<path d="M0 0 C2.50037734 2.17424117 3.43628586 3.73045798 4 7 C3.34 7 2.68 7 2 7 C2 6.34 2 5.68 2 5 C1.01 4.67 0.02 4.34 -1 4 C-0.67 2.68 -0.34 1.36 0 0 Z " fill="#656565" transform="translate(179,114)"/>
<path d="" fill="#FFFFFF" transform="translate(0,0)"/>
<path d="" fill="#FFFFFF" transform="translate(0,0)"/>
<path d="" fill="#FFFFFF" transform="translate(0,0)"/>
<path d="" fill="#FFFFFF" transform="translate(0,0)"/>
<path d="" fill="#FFFFFF" transform="translate(0,0)"/>
<path d="" fill="#FFFFFF" transform="translate(0,0)"/>
<path d="" fill="#FFFFFF" transform="translate(0,0)"/>
<path d="" fill="#FFFFFF" transform="translate(0,0)"/>
<path d="" fill="#FFFFFF" transform="translate(0,0)"/>
<path d="" fill="#FFFFFF" transform="translate(0,0)"/>
<path d="" fill="#FFFFFF" transform="translate(0,0)"/>
<path d="" fill="#FFFFFF" transform="translate(0,0)"/>
<path d="" fill="#FFFFFF" transform="translate(0,0)"/>
<path d="" fill="#FFFFFF" transform="translate(0,0)"/>
<path d="" fill="#FFFFFF" transform="translate(0,0)"/>
<path d="" fill="#FFFFFF" transform="translate(0,0)"/>
<path d="" fill="#FFFFFF" transform="translate(0,0)"/>
<path d="" fill="#FFFFFF" transform="translate(0,0)"/>
<path d="" fill="#FFFFFF" transform="translate(0,0)"/>
<path d="" fill="#FFFFFF" transform="translate(0,0)"/>
<path d="" fill="#FFFFFF" transform="translate(0,0)"/>
<path d="" fill="#FFFFFF" transform="translate(0,0)"/>
<path d="" fill="#FFFFFF" transform="translate(0,0)"/>
<path d="" fill="#FFFFFF" transform="translate(0,0)"/>
<path d="" fill="#FFFFFF" transform="translate(0,0)"/>
<path d="" fill="#FFFFFF" transform="translate(0,0)"/>
<path d="" fill="#FFFFFF" transform="translate(0,0)"/>
<path d="" fill="#FFFFFF" transform="translate(0,0)"/>
<path d="" fill="#FFFFFF" transform="translate(0,0)"/>
<path d="" fill="#FFFFFF" transform="translate(0,0)"/>
<path d="" fill="#FFFFFF" transform="translate(0,0)"/>
<path d="" fill="#FFFFFF" transform="translate(0,0)"/>
<path d="" fill="#FFFFFF" transform="translate(0,0)"/>
<path d="" fill="#FFFFFF" transform="translate(0,0)"/>
<path d="" fill="#FFFFFE" transform="translate(0,0)"/>
<path d="" fill="#FFFFFF" transform="translate(0,0)"/>
<path d="" fill="#FFFFFF" transform="translate(0,0)"/>
<path d="" fill="#FFFFFF" transform="translate(0,0)"/>
<path d="" fill="#FFFFFF" transform="translate(0,0)"/>
<path d="" fill="#FFFFFF" transform="translate(0,0)"/>
<path d="" fill="#FFFFFF" transform="translate(0,0)"/>
<path d="" fill="#FFFFFF" transform="translate(0,0)"/>
<path d="" fill="#FFFFFF" transform="translate(0,0)"/>
<path d="" fill="#FFFFFF" transform="translate(0,0)"/>
<path d="" fill="#FFFFFF" transform="translate(0,0)"/>
<path d="" fill="#FFFFFF" transform="translate(0,0)"/>
<path d="" fill="#FFFFFF" transform="translate(0,0)"/>
<path d="" fill="#FFFFFF" transform="translate(0,0)"/>
<path d="" fill="#FFFFFF" transform="translate(0,0)"/>
<path d="" fill="#FFFFFF" transform="translate(0,0)"/>
<path d="" fill="#FFFFFF" transform="translate(0,0)"/>
<path d="" fill="#FFFFFF" transform="translate(0,0)"/>
<path d="" fill="#FFFFFF" transform="translate(0,0)"/>
<path d="" fill="#FFFFFF" transform="translate(0,0)"/>
<path d="" fill="#FFFFFF" transform="translate(0,0)"/>
</svg>
